G04*
G04 #@! TF.GenerationSoftware,Altium Limited,Altium Designer,23.6.0 (18)*
G04*
G04 Layer_Physical_Order=2*
G04 Layer_Color=16711680*
%FSLAX44Y44*%
%MOMM*%
G71*
G04*
G04 #@! TF.SameCoordinates,601DDEDB-8D37-4A0F-BDDB-BED4ADFAC405*
G04*
G04*
G04 #@! TF.FilePolarity,Positive*
G04*
G01*
G75*
%ADD13C,0.2540*%
%ADD16C,3.2639*%
%ADD18C,1.5000*%
G04:AMPARAMS|DCode=19|XSize=1.5mm|YSize=1.5mm|CornerRadius=0.375mm|HoleSize=0mm|Usage=FLASHONLY|Rotation=0.000|XOffset=0mm|YOffset=0mm|HoleType=Round|Shape=RoundedRectangle|*
%AMROUNDEDRECTD19*
21,1,1.5000,0.7500,0,0,0.0*
21,1,0.7500,1.5000,0,0,0.0*
1,1,0.7500,0.3750,-0.3750*
1,1,0.7500,-0.3750,-0.3750*
1,1,0.7500,-0.3750,0.3750*
1,1,0.7500,0.3750,0.3750*
%
%ADD19ROUNDEDRECTD19*%
G04:AMPARAMS|DCode=20|XSize=1.5mm|YSize=1.5mm|CornerRadius=0.375mm|HoleSize=0mm|Usage=FLASHONLY|Rotation=270.000|XOffset=0mm|YOffset=0mm|HoleType=Round|Shape=RoundedRectangle|*
%AMROUNDEDRECTD20*
21,1,1.5000,0.7500,0,0,270.0*
21,1,0.7500,1.5000,0,0,270.0*
1,1,0.7500,-0.3750,-0.3750*
1,1,0.7500,-0.3750,0.3750*
1,1,0.7500,0.3750,0.3750*
1,1,0.7500,0.3750,-0.3750*
%
%ADD20ROUNDEDRECTD20*%
G36*
X1850000Y993000D02*
Y126000D01*
X1083000D01*
X1082000Y127000D01*
Y993000D01*
X1849000Y994000D01*
X1850000Y993000D01*
D02*
G37*
%LPC*%
G36*
X1680784Y957246D02*
X1671415D01*
X1669928Y956950D01*
X1668668Y956108D01*
X1660401Y947840D01*
X1658950D01*
X1658734Y948216D01*
X1656864Y950085D01*
X1654575Y951407D01*
X1652021Y952091D01*
X1649378D01*
X1646824Y951407D01*
X1644535Y950085D01*
X1642666Y948216D01*
X1641344Y945926D01*
X1640660Y943373D01*
Y940729D01*
X1641344Y938176D01*
X1642666Y935886D01*
X1644535Y934017D01*
X1646824Y932695D01*
X1649378Y932011D01*
X1652021D01*
X1654575Y932695D01*
X1656864Y934017D01*
X1658734Y935886D01*
X1660055Y938176D01*
X1660563Y940071D01*
X1662010D01*
X1663496Y940367D01*
X1664756Y941209D01*
X1664886Y941339D01*
X1666060Y940853D01*
Y940729D01*
X1666744Y938176D01*
X1668066Y935886D01*
X1669935Y934017D01*
X1670310Y933800D01*
Y932350D01*
X1662043Y924083D01*
X1661201Y922822D01*
X1660943Y921529D01*
X1660433Y921306D01*
X1659635Y921255D01*
X1658734Y922816D01*
X1656864Y924685D01*
X1654575Y926007D01*
X1652021Y926691D01*
X1649378D01*
X1646824Y926007D01*
X1644535Y924685D01*
X1642666Y922816D01*
X1641344Y920526D01*
X1640660Y917973D01*
Y915329D01*
X1641344Y912776D01*
X1642666Y910486D01*
X1644535Y908617D01*
X1646824Y907295D01*
X1649378Y906611D01*
X1652021D01*
X1654575Y907295D01*
X1656864Y908617D01*
X1658734Y910486D01*
X1659635Y912048D01*
X1660905Y911707D01*
Y448416D01*
X1661201Y446929D01*
X1662043Y445669D01*
X1713168Y394543D01*
X1714429Y393701D01*
X1715723Y393444D01*
X1715945Y392933D01*
X1715996Y392135D01*
X1714435Y391234D01*
X1712566Y389365D01*
X1711244Y387075D01*
X1710560Y384522D01*
Y381878D01*
X1711244Y379325D01*
X1712566Y377035D01*
X1714435Y375166D01*
X1716725Y373844D01*
X1719278Y373160D01*
X1721922D01*
X1724475Y373844D01*
X1726765Y375166D01*
X1728634Y377035D01*
X1729956Y379325D01*
X1730640Y381878D01*
Y384522D01*
X1729956Y387075D01*
X1728634Y389365D01*
X1726765Y391234D01*
X1725204Y392135D01*
X1725544Y393405D01*
X1734690D01*
X1736177Y393701D01*
X1737437Y394543D01*
X1742135Y399241D01*
X1744678Y398560D01*
X1747322D01*
X1749875Y399244D01*
X1752165Y400566D01*
X1754034Y402435D01*
X1755356Y404725D01*
X1756040Y407278D01*
Y409922D01*
X1755356Y412475D01*
X1754034Y414765D01*
X1752165Y416634D01*
X1749875Y417956D01*
X1747322Y418640D01*
X1744678D01*
X1742125Y417956D01*
X1739835Y416634D01*
X1737966Y414765D01*
X1736644Y412475D01*
X1735960Y409922D01*
Y407278D01*
X1736641Y404735D01*
X1733081Y401175D01*
X1729033D01*
X1728547Y402348D01*
X1728634Y402435D01*
X1729956Y404725D01*
X1730640Y407278D01*
Y409922D01*
X1729956Y412475D01*
X1728634Y414765D01*
X1726765Y416634D01*
X1724475Y417956D01*
X1721922Y418640D01*
X1719278D01*
X1716725Y417956D01*
X1714435Y416634D01*
X1712566Y414765D01*
X1711244Y412475D01*
X1710560Y409922D01*
Y409798D01*
X1709387Y409312D01*
X1668674Y450025D01*
Y908218D01*
X1669848Y908704D01*
X1669935Y908617D01*
X1672224Y907295D01*
X1674778Y906611D01*
X1677421D01*
X1679975Y907295D01*
X1682264Y908617D01*
X1684134Y910486D01*
X1685035Y912048D01*
X1686305Y911707D01*
Y667610D01*
X1686601Y666124D01*
X1687443Y664864D01*
X1711241Y641065D01*
X1710560Y638522D01*
Y635878D01*
X1711244Y633325D01*
X1712566Y631035D01*
X1714435Y629166D01*
X1716725Y627844D01*
X1719278Y627160D01*
X1721922D01*
X1724475Y627844D01*
X1726765Y629166D01*
X1728634Y631035D01*
X1729956Y633325D01*
X1730640Y635878D01*
Y638522D01*
X1729956Y641075D01*
X1728634Y643365D01*
X1726765Y645234D01*
X1724475Y646556D01*
X1721922Y647240D01*
X1719278D01*
X1716735Y646559D01*
X1694074Y669219D01*
Y908218D01*
X1695248Y908704D01*
X1695335Y908617D01*
X1697624Y907295D01*
X1700178Y906611D01*
X1702821D01*
X1705375Y907295D01*
X1707664Y908617D01*
X1709534Y910486D01*
X1710435Y912048D01*
X1711705Y911707D01*
Y799413D01*
X1712001Y797926D01*
X1712843Y796666D01*
X1753425Y756083D01*
Y672933D01*
X1752381Y672261D01*
X1752155Y672285D01*
X1749750Y672763D01*
X1742250D01*
X1739796Y672275D01*
X1737715Y670885D01*
X1736325Y668804D01*
X1735837Y666350D01*
Y658850D01*
X1736325Y656396D01*
X1737715Y654315D01*
X1739796Y652925D01*
X1742250Y652437D01*
X1749750D01*
X1752155Y652915D01*
X1752381Y652939D01*
X1753425Y652267D01*
Y645633D01*
X1752252Y645147D01*
X1752165Y645234D01*
X1749875Y646556D01*
X1747322Y647240D01*
X1744678D01*
X1742125Y646556D01*
X1739835Y645234D01*
X1737966Y643365D01*
X1736644Y641075D01*
X1735960Y638522D01*
Y635878D01*
X1736644Y633325D01*
X1737966Y631035D01*
X1739835Y629166D01*
X1740981Y628504D01*
X1740641Y627234D01*
X1732150D01*
X1730663Y626939D01*
X1729403Y626096D01*
X1724465Y621159D01*
X1721922Y621840D01*
X1719278D01*
X1716725Y621156D01*
X1714435Y619834D01*
X1712566Y617965D01*
X1711244Y615675D01*
X1710560Y613122D01*
Y610478D01*
X1711244Y607925D01*
X1712566Y605635D01*
X1714435Y603766D01*
X1716725Y602444D01*
X1719278Y601760D01*
X1721922D01*
X1724475Y602444D01*
X1726765Y603766D01*
X1728634Y605635D01*
X1729956Y607925D01*
X1730640Y610478D01*
Y613122D01*
X1729959Y615665D01*
X1733759Y619465D01*
X1737807D01*
X1738293Y618292D01*
X1737966Y617965D01*
X1736644Y615675D01*
X1735960Y613122D01*
Y610478D01*
X1736644Y607925D01*
X1737966Y605635D01*
X1739835Y603766D01*
X1742125Y602444D01*
X1744678Y601760D01*
X1747322D01*
X1749875Y602444D01*
X1752165Y603766D01*
X1754034Y605635D01*
X1755356Y607925D01*
X1756040Y610478D01*
Y613122D01*
X1755356Y615675D01*
X1754034Y617965D01*
X1752165Y619834D01*
X1752009Y619924D01*
X1751800Y621511D01*
X1760057Y629768D01*
X1760899Y631029D01*
X1761195Y632515D01*
Y757692D01*
X1760899Y759179D01*
X1760057Y760439D01*
X1719474Y801022D01*
Y908218D01*
X1720648Y908704D01*
X1720735Y908617D01*
X1723024Y907295D01*
X1725578Y906611D01*
X1728221D01*
X1730775Y907295D01*
X1733064Y908617D01*
X1734934Y910486D01*
X1736255Y912776D01*
X1736940Y915329D01*
Y917973D01*
X1736255Y920526D01*
X1734934Y922816D01*
X1733064Y924685D01*
X1730775Y926007D01*
X1728221Y926691D01*
X1725578D01*
X1723024Y926007D01*
X1720735Y924685D01*
X1718866Y922816D01*
X1718640Y922424D01*
X1717381Y922259D01*
X1707289Y932350D01*
Y933800D01*
X1707664Y934017D01*
X1709534Y935886D01*
X1710855Y938176D01*
X1711540Y940729D01*
Y943373D01*
X1710855Y945926D01*
X1709534Y948216D01*
X1707664Y950085D01*
X1705375Y951407D01*
X1702821Y952091D01*
X1700178D01*
X1697624Y951407D01*
X1695335Y950085D01*
X1693466Y948216D01*
X1693240Y947824D01*
X1691980Y947659D01*
X1683531Y956108D01*
X1682271Y956950D01*
X1680784Y957246D01*
D02*
G37*
G36*
X1626621Y952091D02*
X1626570D01*
Y943321D01*
X1635340D01*
Y943373D01*
X1634655Y945926D01*
X1633334Y948216D01*
X1631464Y950085D01*
X1629175Y951407D01*
X1626621Y952091D01*
D02*
G37*
G36*
X1624030D02*
X1623978D01*
X1621424Y951407D01*
X1619135Y950085D01*
X1617266Y948216D01*
X1615944Y945926D01*
X1615260Y943373D01*
Y943321D01*
X1624030D01*
Y952091D01*
D02*
G37*
G36*
X1499620D02*
X1499568D01*
Y943321D01*
X1508338D01*
Y943373D01*
X1507654Y945926D01*
X1506332Y948216D01*
X1504463Y950085D01*
X1502173Y951407D01*
X1499620Y952091D01*
D02*
G37*
G36*
X1497028D02*
X1496976D01*
X1494423Y951407D01*
X1492133Y950085D01*
X1490264Y948216D01*
X1488942Y945926D01*
X1488258Y943373D01*
Y943321D01*
X1497028D01*
Y952091D01*
D02*
G37*
G36*
X1474220D02*
X1474168D01*
Y943321D01*
X1482938D01*
Y943373D01*
X1482254Y945926D01*
X1480932Y948216D01*
X1479063Y950085D01*
X1476774Y951407D01*
X1474220Y952091D01*
D02*
G37*
G36*
X1471628D02*
X1471576D01*
X1469023Y951407D01*
X1466734Y950085D01*
X1464864Y948216D01*
X1463542Y945926D01*
X1462858Y943373D01*
Y943321D01*
X1471628D01*
Y952091D01*
D02*
G37*
G36*
X1398020D02*
X1397968D01*
Y943321D01*
X1406738D01*
Y943373D01*
X1406054Y945926D01*
X1404732Y948216D01*
X1402863Y950085D01*
X1400573Y951407D01*
X1398020Y952091D01*
D02*
G37*
G36*
X1395428D02*
X1395376D01*
X1392823Y951407D01*
X1390533Y950085D01*
X1388664Y948216D01*
X1387342Y945926D01*
X1386658Y943373D01*
Y943321D01*
X1395428D01*
Y952091D01*
D02*
G37*
G36*
X1728221D02*
X1725578D01*
X1723024Y951407D01*
X1720735Y950085D01*
X1718866Y948216D01*
X1717544Y945926D01*
X1716860Y943373D01*
Y940729D01*
X1717544Y938176D01*
X1718866Y935886D01*
X1720735Y934017D01*
X1723024Y932695D01*
X1725578Y932011D01*
X1728221D01*
X1730775Y932695D01*
X1733064Y934017D01*
X1734934Y935886D01*
X1736255Y938176D01*
X1736940Y940729D01*
Y943373D01*
X1736255Y945926D01*
X1734934Y948216D01*
X1733064Y950085D01*
X1730775Y951407D01*
X1728221Y952091D01*
D02*
G37*
G36*
X1635340Y940781D02*
X1626570D01*
Y932011D01*
X1626621D01*
X1629175Y932695D01*
X1631464Y934017D01*
X1633334Y935886D01*
X1634655Y938176D01*
X1635340Y940729D01*
Y940781D01*
D02*
G37*
G36*
X1624030D02*
X1615260D01*
Y940729D01*
X1615944Y938176D01*
X1617266Y935886D01*
X1619135Y934017D01*
X1621424Y932695D01*
X1623978Y932011D01*
X1624030D01*
Y940781D01*
D02*
G37*
G36*
X1601221Y952091D02*
X1598578D01*
X1596024Y951407D01*
X1593735Y950085D01*
X1591866Y948216D01*
X1590544Y945926D01*
X1589860Y943373D01*
Y940729D01*
X1590544Y938176D01*
X1591866Y935886D01*
X1593735Y934017D01*
X1596024Y932695D01*
X1598578Y932011D01*
X1601221D01*
X1603775Y932695D01*
X1606064Y934017D01*
X1607934Y935886D01*
X1609255Y938176D01*
X1609940Y940729D01*
Y943373D01*
X1609255Y945926D01*
X1607934Y948216D01*
X1606064Y950085D01*
X1603775Y951407D01*
X1601221Y952091D01*
D02*
G37*
G36*
X1508338Y940781D02*
X1499568D01*
Y932011D01*
X1499620D01*
X1502173Y932695D01*
X1504463Y934017D01*
X1506332Y935886D01*
X1507654Y938176D01*
X1508338Y940729D01*
Y940781D01*
D02*
G37*
G36*
X1497028D02*
X1488258D01*
Y940729D01*
X1488942Y938176D01*
X1490264Y935886D01*
X1492133Y934017D01*
X1494423Y932695D01*
X1496976Y932011D01*
X1497028D01*
Y940781D01*
D02*
G37*
G36*
X1482938D02*
X1474168D01*
Y932011D01*
X1474220D01*
X1476774Y932695D01*
X1479063Y934017D01*
X1480932Y935886D01*
X1482254Y938176D01*
X1482938Y940729D01*
Y940781D01*
D02*
G37*
G36*
X1471628D02*
X1462858D01*
Y940729D01*
X1463542Y938176D01*
X1464864Y935886D01*
X1466734Y934017D01*
X1469023Y932695D01*
X1471576Y932011D01*
X1471628D01*
Y940781D01*
D02*
G37*
G36*
X1448820Y952091D02*
X1446176D01*
X1443623Y951407D01*
X1441333Y950085D01*
X1439464Y948216D01*
X1438142Y945926D01*
X1437458Y943373D01*
Y940729D01*
X1438142Y938176D01*
X1439464Y935886D01*
X1441333Y934017D01*
X1443623Y932695D01*
X1446176Y932011D01*
X1448820D01*
X1451373Y932695D01*
X1453663Y934017D01*
X1455532Y935886D01*
X1456854Y938176D01*
X1457538Y940729D01*
Y943373D01*
X1456854Y945926D01*
X1455532Y948216D01*
X1453663Y950085D01*
X1451373Y951407D01*
X1448820Y952091D01*
D02*
G37*
G36*
X1423420D02*
X1420776D01*
X1418223Y951407D01*
X1415934Y950085D01*
X1414064Y948216D01*
X1412742Y945926D01*
X1412058Y943373D01*
Y940729D01*
X1412742Y938176D01*
X1414064Y935886D01*
X1415934Y934017D01*
X1418223Y932695D01*
X1420776Y932011D01*
X1423420D01*
X1425974Y932695D01*
X1428263Y934017D01*
X1430132Y935886D01*
X1431454Y938176D01*
X1432138Y940729D01*
Y943373D01*
X1431454Y945926D01*
X1430132Y948216D01*
X1428263Y950085D01*
X1425974Y951407D01*
X1423420Y952091D01*
D02*
G37*
G36*
X1406738Y940781D02*
X1397968D01*
Y932011D01*
X1398020D01*
X1400573Y932695D01*
X1402863Y934017D01*
X1404732Y935886D01*
X1406054Y938176D01*
X1406738Y940729D01*
Y940781D01*
D02*
G37*
G36*
X1395428D02*
X1386658D01*
Y940729D01*
X1387342Y938176D01*
X1388664Y935886D01*
X1390533Y934017D01*
X1392823Y932695D01*
X1395376Y932011D01*
X1395428D01*
Y940781D01*
D02*
G37*
G36*
X1372620Y952091D02*
X1369976D01*
X1367423Y951407D01*
X1365134Y950085D01*
X1363264Y948216D01*
X1361942Y945926D01*
X1361258Y943373D01*
Y940729D01*
X1361942Y938176D01*
X1363264Y935886D01*
X1365134Y934017D01*
X1367423Y932695D01*
X1369976Y932011D01*
X1372620D01*
X1375173Y932695D01*
X1377463Y934017D01*
X1379332Y935886D01*
X1380654Y938176D01*
X1381338Y940729D01*
Y943373D01*
X1380654Y945926D01*
X1379332Y948216D01*
X1377463Y950085D01*
X1375173Y951407D01*
X1372620Y952091D01*
D02*
G37*
G36*
X1626621Y926691D02*
X1626570D01*
Y917921D01*
X1635340D01*
Y917973D01*
X1634655Y920526D01*
X1633334Y922816D01*
X1631464Y924685D01*
X1629175Y926007D01*
X1626621Y926691D01*
D02*
G37*
G36*
X1624030D02*
X1623978D01*
X1621424Y926007D01*
X1619135Y924685D01*
X1617266Y922816D01*
X1615944Y920526D01*
X1615260Y917973D01*
Y917921D01*
X1624030D01*
Y926691D01*
D02*
G37*
G36*
X1499620D02*
X1499568D01*
Y917921D01*
X1508338D01*
Y917973D01*
X1507654Y920526D01*
X1506332Y922816D01*
X1504463Y924685D01*
X1502173Y926007D01*
X1499620Y926691D01*
D02*
G37*
G36*
X1497028D02*
X1496976D01*
X1494423Y926007D01*
X1492133Y924685D01*
X1490264Y922816D01*
X1488942Y920526D01*
X1488258Y917973D01*
Y917921D01*
X1497028D01*
Y926691D01*
D02*
G37*
G36*
X1474220D02*
X1474168D01*
Y917921D01*
X1482938D01*
Y917973D01*
X1482254Y920526D01*
X1480932Y922816D01*
X1479063Y924685D01*
X1476774Y926007D01*
X1474220Y926691D01*
D02*
G37*
G36*
X1471628D02*
X1471576D01*
X1469023Y926007D01*
X1466734Y924685D01*
X1464864Y922816D01*
X1463542Y920526D01*
X1462858Y917973D01*
Y917921D01*
X1471628D01*
Y926691D01*
D02*
G37*
G36*
X1398020D02*
X1397968D01*
Y917921D01*
X1406738D01*
Y917973D01*
X1406054Y920526D01*
X1404732Y922816D01*
X1402863Y924685D01*
X1400573Y926007D01*
X1398020Y926691D01*
D02*
G37*
G36*
X1395428D02*
X1395376D01*
X1392823Y926007D01*
X1390533Y924685D01*
X1388664Y922816D01*
X1387342Y920526D01*
X1386658Y917973D01*
Y917921D01*
X1395428D01*
Y926691D01*
D02*
G37*
G36*
X1635340Y915381D02*
X1626570D01*
Y906611D01*
X1626621D01*
X1629175Y907295D01*
X1631464Y908617D01*
X1633334Y910486D01*
X1634655Y912776D01*
X1635340Y915329D01*
Y915381D01*
D02*
G37*
G36*
X1624030D02*
X1615260D01*
Y915329D01*
X1615944Y912776D01*
X1617266Y910486D01*
X1619135Y908617D01*
X1621424Y907295D01*
X1623978Y906611D01*
X1624030D01*
Y915381D01*
D02*
G37*
G36*
X1508338D02*
X1499568D01*
Y906611D01*
X1499620D01*
X1502173Y907295D01*
X1504463Y908617D01*
X1506332Y910486D01*
X1507654Y912776D01*
X1508338Y915329D01*
Y915381D01*
D02*
G37*
G36*
X1497028D02*
X1488258D01*
Y915329D01*
X1488942Y912776D01*
X1490264Y910486D01*
X1492133Y908617D01*
X1494423Y907295D01*
X1496976Y906611D01*
X1497028D01*
Y915381D01*
D02*
G37*
G36*
X1482938D02*
X1474168D01*
Y906611D01*
X1474220D01*
X1476774Y907295D01*
X1479063Y908617D01*
X1480932Y910486D01*
X1482254Y912776D01*
X1482938Y915329D01*
Y915381D01*
D02*
G37*
G36*
X1471628D02*
X1462858D01*
Y915329D01*
X1463542Y912776D01*
X1464864Y910486D01*
X1466734Y908617D01*
X1469023Y907295D01*
X1471576Y906611D01*
X1471628D01*
Y915381D01*
D02*
G37*
G36*
X1448820Y926691D02*
X1446176D01*
X1443623Y926007D01*
X1441333Y924685D01*
X1439464Y922816D01*
X1438142Y920526D01*
X1437458Y917973D01*
Y915329D01*
X1438142Y912776D01*
X1439464Y910486D01*
X1441333Y908617D01*
X1443623Y907295D01*
X1446176Y906611D01*
X1448820D01*
X1451373Y907295D01*
X1453663Y908617D01*
X1455532Y910486D01*
X1456854Y912776D01*
X1457538Y915329D01*
Y917973D01*
X1456854Y920526D01*
X1455532Y922816D01*
X1453663Y924685D01*
X1451373Y926007D01*
X1448820Y926691D01*
D02*
G37*
G36*
X1423420D02*
X1420776D01*
X1418223Y926007D01*
X1415934Y924685D01*
X1414064Y922816D01*
X1412742Y920526D01*
X1412058Y917973D01*
Y915329D01*
X1412742Y912776D01*
X1414064Y910486D01*
X1415934Y908617D01*
X1418223Y907295D01*
X1420776Y906611D01*
X1423420D01*
X1425974Y907295D01*
X1428263Y908617D01*
X1430132Y910486D01*
X1431454Y912776D01*
X1432138Y915329D01*
Y917973D01*
X1431454Y920526D01*
X1430132Y922816D01*
X1428263Y924685D01*
X1425974Y926007D01*
X1423420Y926691D01*
D02*
G37*
G36*
X1406738Y915381D02*
X1397968D01*
Y906611D01*
X1398020D01*
X1400573Y907295D01*
X1402863Y908617D01*
X1404732Y910486D01*
X1406054Y912776D01*
X1406738Y915329D01*
Y915381D01*
D02*
G37*
G36*
X1395428D02*
X1386658D01*
Y915329D01*
X1387342Y912776D01*
X1388664Y910486D01*
X1390533Y908617D01*
X1392823Y907295D01*
X1395376Y906611D01*
X1395428D01*
Y915381D01*
D02*
G37*
G36*
X1603650Y926814D02*
X1596150D01*
X1593695Y926326D01*
X1591615Y924936D01*
X1590225Y922855D01*
X1589736Y920401D01*
Y912901D01*
X1590225Y910447D01*
X1591615Y908366D01*
X1593695Y906976D01*
X1596150Y906488D01*
X1603650D01*
X1606104Y906976D01*
X1608185Y908366D01*
X1609575Y910447D01*
X1610063Y912901D01*
Y920401D01*
X1609575Y922855D01*
X1608185Y924936D01*
X1606104Y926326D01*
X1603650Y926814D01*
D02*
G37*
G36*
X1375048D02*
X1367548D01*
X1365094Y926326D01*
X1363013Y924936D01*
X1361623Y922855D01*
X1361135Y920401D01*
Y912901D01*
X1361623Y910447D01*
X1363013Y908366D01*
X1365094Y906976D01*
X1367548Y906488D01*
X1375048D01*
X1377502Y906976D01*
X1379583Y908366D01*
X1380973Y910447D01*
X1381461Y912901D01*
Y920401D01*
X1380973Y922855D01*
X1379583Y924936D01*
X1377502Y926326D01*
X1375048Y926814D01*
D02*
G37*
G36*
X1811857Y790860D02*
X1808143D01*
X1804499Y790135D01*
X1801067Y788713D01*
X1797978Y786649D01*
X1795351Y784022D01*
X1793287Y780933D01*
X1791865Y777501D01*
X1791140Y773857D01*
Y770143D01*
X1791865Y766499D01*
X1793287Y763067D01*
X1795351Y759978D01*
X1797978Y757351D01*
X1801067Y755287D01*
X1804499Y753865D01*
X1808143Y753140D01*
X1811857D01*
X1815501Y753865D01*
X1818933Y755287D01*
X1822022Y757351D01*
X1824649Y759978D01*
X1826713Y763067D01*
X1828135Y766499D01*
X1828860Y770143D01*
Y773857D01*
X1828135Y777501D01*
X1826713Y780933D01*
X1824649Y784022D01*
X1822022Y786649D01*
X1818933Y788713D01*
X1815501Y790135D01*
X1811857Y790860D01*
D02*
G37*
G36*
X1291857D02*
X1288143D01*
X1284499Y790135D01*
X1281067Y788713D01*
X1277978Y786649D01*
X1275351Y784022D01*
X1273287Y780933D01*
X1271865Y777501D01*
X1271141Y773857D01*
Y770143D01*
X1271865Y766499D01*
X1273287Y763067D01*
X1275351Y759978D01*
X1277978Y757351D01*
X1281067Y755287D01*
X1284499Y753865D01*
X1288143Y753140D01*
X1291857D01*
X1295501Y753865D01*
X1298933Y755287D01*
X1302022Y757351D01*
X1304649Y759978D01*
X1306713Y763067D01*
X1308135Y766499D01*
X1308860Y770143D01*
Y773857D01*
X1308135Y777501D01*
X1306713Y780933D01*
X1304649Y784022D01*
X1302022Y786649D01*
X1298933Y788713D01*
X1295501Y790135D01*
X1291857Y790860D01*
D02*
G37*
G36*
X1721922Y672640D02*
X1719278D01*
X1716725Y671956D01*
X1714435Y670634D01*
X1712566Y668765D01*
X1711244Y666475D01*
X1710560Y663922D01*
Y661278D01*
X1711244Y658725D01*
X1712566Y656435D01*
X1714435Y654566D01*
X1716725Y653244D01*
X1719278Y652560D01*
X1721922D01*
X1724475Y653244D01*
X1726765Y654566D01*
X1728634Y656435D01*
X1729956Y658725D01*
X1730640Y661278D01*
Y663922D01*
X1729956Y666475D01*
X1728634Y668765D01*
X1726765Y670634D01*
X1724475Y671956D01*
X1721922Y672640D01*
D02*
G37*
G36*
X1112253Y672390D02*
X1109609D01*
X1107056Y671706D01*
X1104766Y670384D01*
X1102897Y668515D01*
X1101575Y666225D01*
X1100891Y663672D01*
Y661028D01*
X1101575Y658475D01*
X1102897Y656185D01*
X1104766Y654316D01*
X1107056Y652994D01*
X1109609Y652310D01*
X1112253D01*
X1114807Y652994D01*
X1117096Y654316D01*
X1118965Y656185D01*
X1120287Y658475D01*
X1120971Y661028D01*
Y663672D01*
X1120287Y666225D01*
X1118965Y668515D01*
X1117096Y670384D01*
X1114807Y671706D01*
X1112253Y672390D01*
D02*
G37*
G36*
X1140081Y672513D02*
X1132581D01*
X1130127Y672025D01*
X1128046Y670635D01*
X1126656Y668554D01*
X1126168Y666100D01*
Y658600D01*
X1126656Y656146D01*
X1128046Y654065D01*
X1130127Y652675D01*
X1132581Y652187D01*
X1140081D01*
X1142535Y652675D01*
X1144616Y654065D01*
X1146006Y656146D01*
X1146495Y658600D01*
Y666100D01*
X1146006Y668554D01*
X1144616Y670635D01*
X1142535Y672025D01*
X1140081Y672513D01*
D02*
G37*
G36*
X1137653Y646990D02*
X1135009D01*
X1132456Y646306D01*
X1130166Y644984D01*
X1128297Y643115D01*
X1126975Y640825D01*
X1126291Y638272D01*
Y635628D01*
X1126975Y633075D01*
X1128297Y630785D01*
X1130166Y628916D01*
X1132456Y627594D01*
X1135009Y626910D01*
X1137653D01*
X1140207Y627594D01*
X1142496Y628916D01*
X1144365Y630785D01*
X1145687Y633075D01*
X1146371Y635628D01*
Y638272D01*
X1145687Y640825D01*
X1144365Y643115D01*
X1142496Y644984D01*
X1140207Y646306D01*
X1137653Y646990D01*
D02*
G37*
G36*
X1112253D02*
X1109609D01*
X1107056Y646306D01*
X1104766Y644984D01*
X1102897Y643115D01*
X1101575Y640825D01*
X1100891Y638272D01*
Y635628D01*
X1101575Y633075D01*
X1102897Y630785D01*
X1104766Y628916D01*
X1107056Y627594D01*
X1109609Y626910D01*
X1112253D01*
X1114807Y627594D01*
X1117096Y628916D01*
X1118965Y630785D01*
X1120287Y633075D01*
X1120971Y635628D01*
Y638272D01*
X1120287Y640825D01*
X1118965Y643115D01*
X1117096Y644984D01*
X1114807Y646306D01*
X1112253Y646990D01*
D02*
G37*
G36*
X1137653Y621590D02*
X1135009D01*
X1132456Y620906D01*
X1130166Y619584D01*
X1128297Y617715D01*
X1126975Y615425D01*
X1126291Y612872D01*
Y610228D01*
X1126975Y607675D01*
X1128297Y605385D01*
X1130166Y603516D01*
X1132456Y602194D01*
X1135009Y601510D01*
X1137653D01*
X1140207Y602194D01*
X1142496Y603516D01*
X1144365Y605385D01*
X1145687Y607675D01*
X1146371Y610228D01*
Y612872D01*
X1145687Y615425D01*
X1144365Y617715D01*
X1142496Y619584D01*
X1140207Y620906D01*
X1137653Y621590D01*
D02*
G37*
G36*
X1112253D02*
X1109609D01*
X1107056Y620906D01*
X1104766Y619584D01*
X1102897Y617715D01*
X1101575Y615425D01*
X1100891Y612872D01*
Y610228D01*
X1101575Y607675D01*
X1102897Y605385D01*
X1104766Y603516D01*
X1107056Y602194D01*
X1109609Y601510D01*
X1112253D01*
X1114807Y602194D01*
X1117096Y603516D01*
X1118965Y605385D01*
X1120287Y607675D01*
X1120971Y610228D01*
Y612872D01*
X1120287Y615425D01*
X1118965Y617715D01*
X1117096Y619584D01*
X1114807Y620906D01*
X1112253Y621590D01*
D02*
G37*
G36*
X1747322Y596440D02*
X1744678D01*
X1742125Y595756D01*
X1739835Y594434D01*
X1737966Y592565D01*
X1736644Y590275D01*
X1735960Y587722D01*
Y585078D01*
X1736644Y582525D01*
X1737966Y580235D01*
X1739835Y578366D01*
X1742125Y577044D01*
X1744678Y576360D01*
X1747322D01*
X1749875Y577044D01*
X1752165Y578366D01*
X1754034Y580235D01*
X1755356Y582525D01*
X1756040Y585078D01*
Y587722D01*
X1755356Y590275D01*
X1754034Y592565D01*
X1752165Y594434D01*
X1749875Y595756D01*
X1747322Y596440D01*
D02*
G37*
G36*
X1721922D02*
X1719278D01*
X1716725Y595756D01*
X1714435Y594434D01*
X1712566Y592565D01*
X1711244Y590275D01*
X1710560Y587722D01*
Y585078D01*
X1711244Y582525D01*
X1712566Y580235D01*
X1714435Y578366D01*
X1716725Y577044D01*
X1719278Y576360D01*
X1721922D01*
X1724475Y577044D01*
X1726765Y578366D01*
X1728634Y580235D01*
X1729956Y582525D01*
X1730640Y585078D01*
Y587722D01*
X1729956Y590275D01*
X1728634Y592565D01*
X1726765Y594434D01*
X1724475Y595756D01*
X1721922Y596440D01*
D02*
G37*
G36*
X1137653Y596190D02*
X1135009D01*
X1132456Y595506D01*
X1130166Y594184D01*
X1128297Y592315D01*
X1126975Y590025D01*
X1126291Y587472D01*
Y584828D01*
X1126975Y582275D01*
X1128297Y579985D01*
X1130166Y578116D01*
X1132456Y576794D01*
X1135009Y576110D01*
X1137653D01*
X1140207Y576794D01*
X1142496Y578116D01*
X1144365Y579985D01*
X1145687Y582275D01*
X1146371Y584828D01*
Y587472D01*
X1145687Y590025D01*
X1144365Y592315D01*
X1142496Y594184D01*
X1140207Y595506D01*
X1137653Y596190D01*
D02*
G37*
G36*
X1112253D02*
X1109609D01*
X1107056Y595506D01*
X1104766Y594184D01*
X1102897Y592315D01*
X1101575Y590025D01*
X1100891Y587472D01*
Y584828D01*
X1101575Y582275D01*
X1102897Y579985D01*
X1104766Y578116D01*
X1107056Y576794D01*
X1109609Y576110D01*
X1112253D01*
X1114807Y576794D01*
X1117096Y578116D01*
X1118965Y579985D01*
X1120287Y582275D01*
X1120971Y584828D01*
Y587472D01*
X1120287Y590025D01*
X1118965Y592315D01*
X1117096Y594184D01*
X1114807Y595506D01*
X1112253Y596190D01*
D02*
G37*
G36*
X1747322Y571040D02*
X1744678D01*
X1742125Y570356D01*
X1739835Y569034D01*
X1737966Y567165D01*
X1736644Y564875D01*
X1735960Y562322D01*
Y559678D01*
X1736644Y557125D01*
X1737966Y554835D01*
X1739835Y552966D01*
X1742125Y551644D01*
X1744678Y550960D01*
X1747322D01*
X1749875Y551644D01*
X1752165Y552966D01*
X1754034Y554835D01*
X1755356Y557125D01*
X1756040Y559678D01*
Y562322D01*
X1755356Y564875D01*
X1754034Y567165D01*
X1752165Y569034D01*
X1749875Y570356D01*
X1747322Y571040D01*
D02*
G37*
G36*
X1721922D02*
X1719278D01*
X1716725Y570356D01*
X1714435Y569034D01*
X1712566Y567165D01*
X1711244Y564875D01*
X1710560Y562322D01*
Y559678D01*
X1711244Y557125D01*
X1712566Y554835D01*
X1714435Y552966D01*
X1716725Y551644D01*
X1719278Y550960D01*
X1721922D01*
X1724475Y551644D01*
X1726765Y552966D01*
X1728634Y554835D01*
X1729956Y557125D01*
X1730640Y559678D01*
Y562322D01*
X1729956Y564875D01*
X1728634Y567165D01*
X1726765Y569034D01*
X1724475Y570356D01*
X1721922Y571040D01*
D02*
G37*
G36*
X1137653Y570790D02*
X1135009D01*
X1132456Y570106D01*
X1130166Y568784D01*
X1128297Y566915D01*
X1126975Y564625D01*
X1126291Y562072D01*
Y559428D01*
X1126975Y556875D01*
X1128297Y554585D01*
X1130166Y552716D01*
X1132456Y551394D01*
X1135009Y550710D01*
X1137653D01*
X1140207Y551394D01*
X1142496Y552716D01*
X1144365Y554585D01*
X1145687Y556875D01*
X1146371Y559428D01*
Y562072D01*
X1145687Y564625D01*
X1144365Y566915D01*
X1142496Y568784D01*
X1140207Y570106D01*
X1137653Y570790D01*
D02*
G37*
G36*
X1112253D02*
X1109609D01*
X1107056Y570106D01*
X1104766Y568784D01*
X1102897Y566915D01*
X1101575Y564625D01*
X1100891Y562072D01*
Y559428D01*
X1101575Y556875D01*
X1102897Y554585D01*
X1104766Y552716D01*
X1107056Y551394D01*
X1109609Y550710D01*
X1112253D01*
X1114807Y551394D01*
X1117096Y552716D01*
X1118965Y554585D01*
X1120287Y556875D01*
X1120971Y559428D01*
Y562072D01*
X1120287Y564625D01*
X1118965Y566915D01*
X1117096Y568784D01*
X1114807Y570106D01*
X1112253Y570790D01*
D02*
G37*
G36*
X1747322Y545640D02*
X1744678D01*
X1742125Y544956D01*
X1739835Y543634D01*
X1737966Y541765D01*
X1736644Y539475D01*
X1735960Y536922D01*
Y534278D01*
X1736644Y531725D01*
X1737966Y529435D01*
X1739835Y527566D01*
X1742125Y526244D01*
X1744678Y525560D01*
X1747322D01*
X1749875Y526244D01*
X1752165Y527566D01*
X1754034Y529435D01*
X1755356Y531725D01*
X1756040Y534278D01*
Y536922D01*
X1755356Y539475D01*
X1754034Y541765D01*
X1752165Y543634D01*
X1749875Y544956D01*
X1747322Y545640D01*
D02*
G37*
G36*
X1721922D02*
X1719278D01*
X1716725Y544956D01*
X1714435Y543634D01*
X1712566Y541765D01*
X1711244Y539475D01*
X1710560Y536922D01*
Y534278D01*
X1711244Y531725D01*
X1712566Y529435D01*
X1714435Y527566D01*
X1716725Y526244D01*
X1719278Y525560D01*
X1721922D01*
X1724475Y526244D01*
X1726765Y527566D01*
X1728634Y529435D01*
X1729956Y531725D01*
X1730640Y534278D01*
Y536922D01*
X1729956Y539475D01*
X1728634Y541765D01*
X1726765Y543634D01*
X1724475Y544956D01*
X1721922Y545640D01*
D02*
G37*
G36*
X1137653Y545390D02*
X1135009D01*
X1132456Y544706D01*
X1130166Y543384D01*
X1128297Y541515D01*
X1126975Y539225D01*
X1126291Y536672D01*
Y534028D01*
X1126975Y531475D01*
X1128297Y529185D01*
X1130166Y527316D01*
X1132456Y525994D01*
X1135009Y525310D01*
X1137653D01*
X1140207Y525994D01*
X1142496Y527316D01*
X1144365Y529185D01*
X1145687Y531475D01*
X1146371Y534028D01*
Y536672D01*
X1145687Y539225D01*
X1144365Y541515D01*
X1142496Y543384D01*
X1140207Y544706D01*
X1137653Y545390D01*
D02*
G37*
G36*
X1112253D02*
X1109609D01*
X1107056Y544706D01*
X1104766Y543384D01*
X1102897Y541515D01*
X1101575Y539225D01*
X1100891Y536672D01*
Y534028D01*
X1101575Y531475D01*
X1102897Y529185D01*
X1104766Y527316D01*
X1107056Y525994D01*
X1109609Y525310D01*
X1112253D01*
X1114807Y525994D01*
X1117096Y527316D01*
X1118965Y529185D01*
X1120287Y531475D01*
X1120971Y534028D01*
Y536672D01*
X1120287Y539225D01*
X1118965Y541515D01*
X1117096Y543384D01*
X1114807Y544706D01*
X1112253Y545390D01*
D02*
G37*
G36*
X1747322Y520240D02*
X1744678D01*
X1742125Y519556D01*
X1739835Y518234D01*
X1737966Y516365D01*
X1736644Y514075D01*
X1735960Y511522D01*
Y508878D01*
X1736644Y506325D01*
X1737966Y504035D01*
X1739835Y502166D01*
X1742125Y500844D01*
X1744678Y500160D01*
X1747322D01*
X1749875Y500844D01*
X1752165Y502166D01*
X1754034Y504035D01*
X1755356Y506325D01*
X1756040Y508878D01*
Y511522D01*
X1755356Y514075D01*
X1754034Y516365D01*
X1752165Y518234D01*
X1749875Y519556D01*
X1747322Y520240D01*
D02*
G37*
G36*
X1721922D02*
X1719278D01*
X1716725Y519556D01*
X1714435Y518234D01*
X1712566Y516365D01*
X1711244Y514075D01*
X1710560Y511522D01*
Y508878D01*
X1711244Y506325D01*
X1712566Y504035D01*
X1714435Y502166D01*
X1716725Y500844D01*
X1719278Y500160D01*
X1721922D01*
X1724475Y500844D01*
X1726765Y502166D01*
X1728634Y504035D01*
X1729956Y506325D01*
X1730640Y508878D01*
Y511522D01*
X1729956Y514075D01*
X1728634Y516365D01*
X1726765Y518234D01*
X1724475Y519556D01*
X1721922Y520240D01*
D02*
G37*
G36*
X1137653Y519990D02*
X1135009D01*
X1132456Y519306D01*
X1130166Y517984D01*
X1128297Y516115D01*
X1126975Y513825D01*
X1126291Y511272D01*
Y508628D01*
X1126975Y506075D01*
X1128297Y503785D01*
X1130166Y501916D01*
X1132456Y500594D01*
X1135009Y499910D01*
X1137653D01*
X1140207Y500594D01*
X1142496Y501916D01*
X1144365Y503785D01*
X1145687Y506075D01*
X1146371Y508628D01*
Y511272D01*
X1145687Y513825D01*
X1144365Y516115D01*
X1142496Y517984D01*
X1140207Y519306D01*
X1137653Y519990D01*
D02*
G37*
G36*
X1112253D02*
X1109609D01*
X1107056Y519306D01*
X1104766Y517984D01*
X1102897Y516115D01*
X1101575Y513825D01*
X1100891Y511272D01*
Y508628D01*
X1101575Y506075D01*
X1102897Y503785D01*
X1104766Y501916D01*
X1107056Y500594D01*
X1109609Y499910D01*
X1112253D01*
X1114807Y500594D01*
X1117096Y501916D01*
X1118965Y503785D01*
X1120287Y506075D01*
X1120971Y508628D01*
Y511272D01*
X1120287Y513825D01*
X1118965Y516115D01*
X1117096Y517984D01*
X1114807Y519306D01*
X1112253Y519990D01*
D02*
G37*
G36*
X1747322Y494840D02*
X1744678D01*
X1742125Y494156D01*
X1739835Y492834D01*
X1737966Y490965D01*
X1736644Y488675D01*
X1735960Y486122D01*
Y483478D01*
X1736644Y480925D01*
X1737966Y478635D01*
X1739835Y476766D01*
X1742125Y475444D01*
X1744678Y474760D01*
X1747322D01*
X1749875Y475444D01*
X1752165Y476766D01*
X1754034Y478635D01*
X1755356Y480925D01*
X1756040Y483478D01*
Y486122D01*
X1755356Y488675D01*
X1754034Y490965D01*
X1752165Y492834D01*
X1749875Y494156D01*
X1747322Y494840D01*
D02*
G37*
G36*
X1721922D02*
X1719278D01*
X1716725Y494156D01*
X1714435Y492834D01*
X1712566Y490965D01*
X1711244Y488675D01*
X1710560Y486122D01*
Y483478D01*
X1711244Y480925D01*
X1712566Y478635D01*
X1714435Y476766D01*
X1716725Y475444D01*
X1719278Y474760D01*
X1721922D01*
X1724475Y475444D01*
X1726765Y476766D01*
X1728634Y478635D01*
X1729956Y480925D01*
X1730640Y483478D01*
Y486122D01*
X1729956Y488675D01*
X1728634Y490965D01*
X1726765Y492834D01*
X1724475Y494156D01*
X1721922Y494840D01*
D02*
G37*
G36*
X1137653Y494590D02*
X1135009D01*
X1132456Y493906D01*
X1130166Y492584D01*
X1128297Y490715D01*
X1126975Y488425D01*
X1126291Y485872D01*
Y483228D01*
X1126975Y480675D01*
X1128297Y478385D01*
X1130166Y476516D01*
X1132456Y475194D01*
X1135009Y474510D01*
X1137653D01*
X1140207Y475194D01*
X1142496Y476516D01*
X1144365Y478385D01*
X1145687Y480675D01*
X1146371Y483228D01*
Y485872D01*
X1145687Y488425D01*
X1144365Y490715D01*
X1142496Y492584D01*
X1140207Y493906D01*
X1137653Y494590D01*
D02*
G37*
G36*
X1112253D02*
X1109609D01*
X1107056Y493906D01*
X1104766Y492584D01*
X1102897Y490715D01*
X1101575Y488425D01*
X1100891Y485872D01*
Y483228D01*
X1101575Y480675D01*
X1102897Y478385D01*
X1104766Y476516D01*
X1107056Y475194D01*
X1109609Y474510D01*
X1112253D01*
X1114807Y475194D01*
X1117096Y476516D01*
X1118965Y478385D01*
X1120287Y480675D01*
X1120971Y483228D01*
Y485872D01*
X1120287Y488425D01*
X1118965Y490715D01*
X1117096Y492584D01*
X1114807Y493906D01*
X1112253Y494590D01*
D02*
G37*
G36*
X1747322Y469440D02*
X1744678D01*
X1742125Y468756D01*
X1739835Y467434D01*
X1737966Y465565D01*
X1736644Y463275D01*
X1735960Y460722D01*
Y458078D01*
X1736644Y455525D01*
X1737966Y453235D01*
X1739835Y451366D01*
X1742125Y450044D01*
X1744678Y449360D01*
X1747322D01*
X1749875Y450044D01*
X1752165Y451366D01*
X1754034Y453235D01*
X1755356Y455525D01*
X1756040Y458078D01*
Y460722D01*
X1755356Y463275D01*
X1754034Y465565D01*
X1752165Y467434D01*
X1749875Y468756D01*
X1747322Y469440D01*
D02*
G37*
G36*
X1721922D02*
X1719278D01*
X1716725Y468756D01*
X1714435Y467434D01*
X1712566Y465565D01*
X1711244Y463275D01*
X1710560Y460722D01*
Y458078D01*
X1711244Y455525D01*
X1712566Y453235D01*
X1714435Y451366D01*
X1716725Y450044D01*
X1719278Y449360D01*
X1721922D01*
X1724475Y450044D01*
X1726765Y451366D01*
X1728634Y453235D01*
X1729956Y455525D01*
X1730640Y458078D01*
Y460722D01*
X1729956Y463275D01*
X1728634Y465565D01*
X1726765Y467434D01*
X1724475Y468756D01*
X1721922Y469440D01*
D02*
G37*
G36*
X1137653Y469190D02*
X1135009D01*
X1132456Y468506D01*
X1130166Y467184D01*
X1128297Y465315D01*
X1126975Y463025D01*
X1126291Y460472D01*
Y457828D01*
X1126975Y455275D01*
X1128297Y452985D01*
X1130166Y451116D01*
X1132456Y449794D01*
X1135009Y449110D01*
X1137653D01*
X1140207Y449794D01*
X1142496Y451116D01*
X1144365Y452985D01*
X1145687Y455275D01*
X1146371Y457828D01*
Y460472D01*
X1145687Y463025D01*
X1144365Y465315D01*
X1142496Y467184D01*
X1140207Y468506D01*
X1137653Y469190D01*
D02*
G37*
G36*
X1112253D02*
X1109609D01*
X1107056Y468506D01*
X1104766Y467184D01*
X1102897Y465315D01*
X1101575Y463025D01*
X1100891Y460472D01*
Y457828D01*
X1101575Y455275D01*
X1102897Y452985D01*
X1104766Y451116D01*
X1107056Y449794D01*
X1109609Y449110D01*
X1112253D01*
X1114807Y449794D01*
X1117096Y451116D01*
X1118965Y452985D01*
X1120287Y455275D01*
X1120971Y457828D01*
Y460472D01*
X1120287Y463025D01*
X1118965Y465315D01*
X1117096Y467184D01*
X1114807Y468506D01*
X1112253Y469190D01*
D02*
G37*
G36*
X1747322Y444040D02*
X1744678D01*
X1742125Y443356D01*
X1739835Y442034D01*
X1737966Y440165D01*
X1736644Y437875D01*
X1735960Y435322D01*
Y432678D01*
X1736644Y430125D01*
X1737966Y427835D01*
X1739835Y425966D01*
X1742125Y424644D01*
X1744678Y423960D01*
X1747322D01*
X1749875Y424644D01*
X1752165Y425966D01*
X1754034Y427835D01*
X1755356Y430125D01*
X1756040Y432678D01*
Y435322D01*
X1755356Y437875D01*
X1754034Y440165D01*
X1752165Y442034D01*
X1749875Y443356D01*
X1747322Y444040D01*
D02*
G37*
G36*
X1721922D02*
X1719278D01*
X1716725Y443356D01*
X1714435Y442034D01*
X1712566Y440165D01*
X1711244Y437875D01*
X1710560Y435322D01*
Y432678D01*
X1711244Y430125D01*
X1712566Y427835D01*
X1714435Y425966D01*
X1716725Y424644D01*
X1719278Y423960D01*
X1721922D01*
X1724475Y424644D01*
X1726765Y425966D01*
X1728634Y427835D01*
X1729956Y430125D01*
X1730640Y432678D01*
Y435322D01*
X1729956Y437875D01*
X1728634Y440165D01*
X1726765Y442034D01*
X1724475Y443356D01*
X1721922Y444040D01*
D02*
G37*
G36*
X1137653Y443790D02*
X1135009D01*
X1132456Y443106D01*
X1130166Y441784D01*
X1128297Y439915D01*
X1126975Y437625D01*
X1126291Y435072D01*
Y432428D01*
X1126975Y429875D01*
X1128297Y427585D01*
X1130166Y425716D01*
X1132456Y424394D01*
X1135009Y423710D01*
X1137653D01*
X1140207Y424394D01*
X1142496Y425716D01*
X1144365Y427585D01*
X1145687Y429875D01*
X1146371Y432428D01*
Y435072D01*
X1145687Y437625D01*
X1144365Y439915D01*
X1142496Y441784D01*
X1140207Y443106D01*
X1137653Y443790D01*
D02*
G37*
G36*
X1112253D02*
X1109609D01*
X1107056Y443106D01*
X1104766Y441784D01*
X1102897Y439915D01*
X1101575Y437625D01*
X1100891Y435072D01*
Y432428D01*
X1101575Y429875D01*
X1102897Y427585D01*
X1104766Y425716D01*
X1107056Y424394D01*
X1109609Y423710D01*
X1112253D01*
X1114807Y424394D01*
X1117096Y425716D01*
X1118965Y427585D01*
X1120287Y429875D01*
X1120971Y432428D01*
Y435072D01*
X1120287Y437625D01*
X1118965Y439915D01*
X1117096Y441784D01*
X1114807Y443106D01*
X1112253Y443790D01*
D02*
G37*
G36*
X1137653Y418390D02*
X1135009D01*
X1132456Y417706D01*
X1130166Y416384D01*
X1128297Y414515D01*
X1126975Y412225D01*
X1126291Y409672D01*
Y407028D01*
X1126975Y404475D01*
X1128297Y402185D01*
X1130166Y400316D01*
X1132456Y398994D01*
X1135009Y398310D01*
X1137653D01*
X1140207Y398994D01*
X1142496Y400316D01*
X1144365Y402185D01*
X1145687Y404475D01*
X1146371Y407028D01*
Y409672D01*
X1145687Y412225D01*
X1144365Y414515D01*
X1142496Y416384D01*
X1140207Y417706D01*
X1137653Y418390D01*
D02*
G37*
G36*
X1112253D02*
X1109609D01*
X1107056Y417706D01*
X1104766Y416384D01*
X1102897Y414515D01*
X1101575Y412225D01*
X1100891Y409672D01*
Y407028D01*
X1101575Y404475D01*
X1102897Y402185D01*
X1104766Y400316D01*
X1107056Y398994D01*
X1109609Y398310D01*
X1112253D01*
X1114807Y398994D01*
X1117096Y400316D01*
X1118965Y402185D01*
X1120287Y404475D01*
X1120971Y407028D01*
Y409672D01*
X1120287Y412225D01*
X1118965Y414515D01*
X1117096Y416384D01*
X1114807Y417706D01*
X1112253Y418390D01*
D02*
G37*
G36*
X1747322Y393240D02*
X1744678D01*
X1742125Y392556D01*
X1739835Y391234D01*
X1737966Y389365D01*
X1736644Y387075D01*
X1735960Y384522D01*
Y381878D01*
X1736644Y379325D01*
X1737966Y377035D01*
X1739835Y375166D01*
X1742125Y373844D01*
X1744678Y373160D01*
X1747322D01*
X1749875Y373844D01*
X1752165Y375166D01*
X1754034Y377035D01*
X1755356Y379325D01*
X1756040Y381878D01*
Y384522D01*
X1755356Y387075D01*
X1754034Y389365D01*
X1752165Y391234D01*
X1749875Y392556D01*
X1747322Y393240D01*
D02*
G37*
G36*
X1137653Y392990D02*
X1135009D01*
X1132456Y392306D01*
X1130166Y390984D01*
X1128297Y389115D01*
X1126975Y386825D01*
X1126291Y384272D01*
Y381628D01*
X1126975Y379075D01*
X1128297Y376785D01*
X1130166Y374916D01*
X1132456Y373594D01*
X1135009Y372910D01*
X1137653D01*
X1140207Y373594D01*
X1142496Y374916D01*
X1144365Y376785D01*
X1145687Y379075D01*
X1146371Y381628D01*
Y384272D01*
X1145687Y386825D01*
X1144365Y389115D01*
X1142496Y390984D01*
X1140207Y392306D01*
X1137653Y392990D01*
D02*
G37*
G36*
X1112253D02*
X1109609D01*
X1107056Y392306D01*
X1104766Y390984D01*
X1102897Y389115D01*
X1101575Y386825D01*
X1100891Y384272D01*
Y381628D01*
X1101575Y379075D01*
X1102897Y376785D01*
X1104766Y374916D01*
X1107056Y373594D01*
X1109609Y372910D01*
X1112253D01*
X1114807Y373594D01*
X1117096Y374916D01*
X1118965Y376785D01*
X1120287Y379075D01*
X1120971Y381628D01*
Y384272D01*
X1120287Y386825D01*
X1118965Y389115D01*
X1117096Y390984D01*
X1114807Y392306D01*
X1112253Y392990D01*
D02*
G37*
G36*
X1747322Y367840D02*
X1744678D01*
X1742125Y367156D01*
X1739835Y365834D01*
X1737966Y363965D01*
X1736644Y361675D01*
X1735960Y359122D01*
Y356478D01*
X1736644Y353925D01*
X1737966Y351635D01*
X1739835Y349766D01*
X1742125Y348444D01*
X1744678Y347760D01*
X1747322D01*
X1749875Y348444D01*
X1752165Y349766D01*
X1754034Y351635D01*
X1755356Y353925D01*
X1756040Y356478D01*
Y359122D01*
X1755356Y361675D01*
X1754034Y363965D01*
X1752165Y365834D01*
X1749875Y367156D01*
X1747322Y367840D01*
D02*
G37*
G36*
X1721922D02*
X1719278D01*
X1716725Y367156D01*
X1714435Y365834D01*
X1712566Y363965D01*
X1711244Y361675D01*
X1710560Y359122D01*
Y356478D01*
X1711244Y353925D01*
X1712566Y351635D01*
X1714435Y349766D01*
X1716725Y348444D01*
X1719278Y347760D01*
X1721922D01*
X1724475Y348444D01*
X1726765Y349766D01*
X1728634Y351635D01*
X1729956Y353925D01*
X1730640Y356478D01*
Y359122D01*
X1729956Y361675D01*
X1728634Y363965D01*
X1726765Y365834D01*
X1724475Y367156D01*
X1721922Y367840D01*
D02*
G37*
G36*
X1137653Y367590D02*
X1135009D01*
X1132456Y366906D01*
X1130166Y365584D01*
X1128297Y363715D01*
X1126975Y361425D01*
X1126291Y358872D01*
Y356228D01*
X1126975Y353675D01*
X1128297Y351385D01*
X1130166Y349516D01*
X1132456Y348194D01*
X1135009Y347510D01*
X1137653D01*
X1140207Y348194D01*
X1142496Y349516D01*
X1144365Y351385D01*
X1145687Y353675D01*
X1146371Y356228D01*
Y358872D01*
X1145687Y361425D01*
X1144365Y363715D01*
X1142496Y365584D01*
X1140207Y366906D01*
X1137653Y367590D01*
D02*
G37*
G36*
X1112253D02*
X1109609D01*
X1107056Y366906D01*
X1104766Y365584D01*
X1102897Y363715D01*
X1101575Y361425D01*
X1100891Y358872D01*
Y356228D01*
X1101575Y353675D01*
X1102897Y351385D01*
X1104766Y349516D01*
X1107056Y348194D01*
X1109609Y347510D01*
X1112253D01*
X1114807Y348194D01*
X1117096Y349516D01*
X1118965Y351385D01*
X1120287Y353675D01*
X1120971Y356228D01*
Y358872D01*
X1120287Y361425D01*
X1118965Y363715D01*
X1117096Y365584D01*
X1114807Y366906D01*
X1112253Y367590D01*
D02*
G37*
G36*
X1747322Y342440D02*
X1744678D01*
X1742125Y341756D01*
X1739835Y340434D01*
X1737966Y338565D01*
X1736644Y336275D01*
X1735960Y333722D01*
Y331078D01*
X1736644Y328525D01*
X1737966Y326235D01*
X1739835Y324366D01*
X1742125Y323044D01*
X1744678Y322360D01*
X1747322D01*
X1749875Y323044D01*
X1752165Y324366D01*
X1754034Y326235D01*
X1755356Y328525D01*
X1756040Y331078D01*
Y333722D01*
X1755356Y336275D01*
X1754034Y338565D01*
X1752165Y340434D01*
X1749875Y341756D01*
X1747322Y342440D01*
D02*
G37*
G36*
X1721922D02*
X1719278D01*
X1716725Y341756D01*
X1714435Y340434D01*
X1712566Y338565D01*
X1711244Y336275D01*
X1710560Y333722D01*
Y331078D01*
X1711244Y328525D01*
X1712566Y326235D01*
X1714435Y324366D01*
X1716725Y323044D01*
X1719278Y322360D01*
X1721922D01*
X1724475Y323044D01*
X1726765Y324366D01*
X1728634Y326235D01*
X1729956Y328525D01*
X1730640Y331078D01*
Y333722D01*
X1729956Y336275D01*
X1728634Y338565D01*
X1726765Y340434D01*
X1724475Y341756D01*
X1721922Y342440D01*
D02*
G37*
G36*
X1137653Y342190D02*
X1135009D01*
X1132456Y341506D01*
X1130166Y340184D01*
X1128297Y338315D01*
X1126975Y336025D01*
X1126291Y333472D01*
Y330828D01*
X1126975Y328275D01*
X1128297Y325985D01*
X1130166Y324116D01*
X1132456Y322794D01*
X1135009Y322110D01*
X1137653D01*
X1140207Y322794D01*
X1142496Y324116D01*
X1144365Y325985D01*
X1145687Y328275D01*
X1146371Y330828D01*
Y333472D01*
X1145687Y336025D01*
X1144365Y338315D01*
X1142496Y340184D01*
X1140207Y341506D01*
X1137653Y342190D01*
D02*
G37*
G36*
X1112253D02*
X1109609D01*
X1107056Y341506D01*
X1104766Y340184D01*
X1102897Y338315D01*
X1101575Y336025D01*
X1100891Y333472D01*
Y330828D01*
X1101575Y328275D01*
X1102897Y325985D01*
X1104766Y324116D01*
X1107056Y322794D01*
X1109609Y322110D01*
X1112253D01*
X1114807Y322794D01*
X1117096Y324116D01*
X1118965Y325985D01*
X1120287Y328275D01*
X1120971Y330828D01*
Y333472D01*
X1120287Y336025D01*
X1118965Y338315D01*
X1117096Y340184D01*
X1114807Y341506D01*
X1112253Y342190D01*
D02*
G37*
G36*
X1747322Y317040D02*
X1744678D01*
X1742125Y316356D01*
X1739835Y315034D01*
X1737966Y313165D01*
X1736644Y310875D01*
X1735960Y308322D01*
Y305678D01*
X1736644Y303125D01*
X1737966Y300835D01*
X1739835Y298966D01*
X1742125Y297644D01*
X1744678Y296960D01*
X1747322D01*
X1749875Y297644D01*
X1752165Y298966D01*
X1754034Y300835D01*
X1755356Y303125D01*
X1756040Y305678D01*
Y308322D01*
X1755356Y310875D01*
X1754034Y313165D01*
X1752165Y315034D01*
X1749875Y316356D01*
X1747322Y317040D01*
D02*
G37*
G36*
X1721922D02*
X1719278D01*
X1716725Y316356D01*
X1714435Y315034D01*
X1712566Y313165D01*
X1711244Y310875D01*
X1710560Y308322D01*
Y305678D01*
X1711244Y303125D01*
X1712566Y300835D01*
X1714435Y298966D01*
X1716725Y297644D01*
X1719278Y296960D01*
X1721922D01*
X1724475Y297644D01*
X1726765Y298966D01*
X1728634Y300835D01*
X1729956Y303125D01*
X1730640Y305678D01*
Y308322D01*
X1729956Y310875D01*
X1728634Y313165D01*
X1726765Y315034D01*
X1724475Y316356D01*
X1721922Y317040D01*
D02*
G37*
G36*
X1137653Y316790D02*
X1135009D01*
X1132456Y316106D01*
X1130166Y314784D01*
X1128297Y312915D01*
X1126975Y310625D01*
X1126291Y308072D01*
Y305428D01*
X1126975Y302875D01*
X1128297Y300585D01*
X1130166Y298716D01*
X1132456Y297394D01*
X1135009Y296710D01*
X1137653D01*
X1140207Y297394D01*
X1142496Y298716D01*
X1144365Y300585D01*
X1145687Y302875D01*
X1146371Y305428D01*
Y308072D01*
X1145687Y310625D01*
X1144365Y312915D01*
X1142496Y314784D01*
X1140207Y316106D01*
X1137653Y316790D01*
D02*
G37*
G36*
X1112253D02*
X1109609D01*
X1107056Y316106D01*
X1104766Y314784D01*
X1102897Y312915D01*
X1101575Y310625D01*
X1100891Y308072D01*
Y305428D01*
X1101575Y302875D01*
X1102897Y300585D01*
X1104766Y298716D01*
X1107056Y297394D01*
X1109609Y296710D01*
X1112253D01*
X1114807Y297394D01*
X1117096Y298716D01*
X1118965Y300585D01*
X1120287Y302875D01*
X1120971Y305428D01*
Y308072D01*
X1120287Y310625D01*
X1118965Y312915D01*
X1117096Y314784D01*
X1114807Y316106D01*
X1112253Y316790D01*
D02*
G37*
G36*
X1747322Y291640D02*
X1744678D01*
X1742125Y290956D01*
X1739835Y289634D01*
X1737966Y287765D01*
X1736644Y285475D01*
X1735960Y282922D01*
Y280278D01*
X1736644Y277725D01*
X1737966Y275435D01*
X1739835Y273566D01*
X1742125Y272244D01*
X1744678Y271560D01*
X1747322D01*
X1749875Y272244D01*
X1752165Y273566D01*
X1754034Y275435D01*
X1755356Y277725D01*
X1756040Y280278D01*
Y282922D01*
X1755356Y285475D01*
X1754034Y287765D01*
X1752165Y289634D01*
X1749875Y290956D01*
X1747322Y291640D01*
D02*
G37*
G36*
X1721922D02*
X1719278D01*
X1716725Y290956D01*
X1714435Y289634D01*
X1712566Y287765D01*
X1711244Y285475D01*
X1710560Y282922D01*
Y280278D01*
X1711244Y277725D01*
X1712566Y275435D01*
X1714435Y273566D01*
X1716725Y272244D01*
X1719278Y271560D01*
X1721922D01*
X1724475Y272244D01*
X1726765Y273566D01*
X1728634Y275435D01*
X1729956Y277725D01*
X1730640Y280278D01*
Y282922D01*
X1729956Y285475D01*
X1728634Y287765D01*
X1726765Y289634D01*
X1724475Y290956D01*
X1721922Y291640D01*
D02*
G37*
G36*
X1137653Y291390D02*
X1135009D01*
X1132456Y290706D01*
X1130166Y289384D01*
X1128297Y287515D01*
X1126975Y285225D01*
X1126291Y282672D01*
Y280028D01*
X1126975Y277475D01*
X1128297Y275185D01*
X1130166Y273316D01*
X1132456Y271994D01*
X1135009Y271310D01*
X1137653D01*
X1140207Y271994D01*
X1142496Y273316D01*
X1144365Y275185D01*
X1145687Y277475D01*
X1146371Y280028D01*
Y282672D01*
X1145687Y285225D01*
X1144365Y287515D01*
X1142496Y289384D01*
X1140207Y290706D01*
X1137653Y291390D01*
D02*
G37*
G36*
X1112253D02*
X1109609D01*
X1107056Y290706D01*
X1104766Y289384D01*
X1102897Y287515D01*
X1101575Y285225D01*
X1100891Y282672D01*
Y280028D01*
X1101575Y277475D01*
X1102897Y275185D01*
X1104766Y273316D01*
X1107056Y271994D01*
X1109609Y271310D01*
X1112253D01*
X1114807Y271994D01*
X1117096Y273316D01*
X1118965Y275185D01*
X1120287Y277475D01*
X1120971Y280028D01*
Y282672D01*
X1120287Y285225D01*
X1118965Y287515D01*
X1117096Y289384D01*
X1114807Y290706D01*
X1112253Y291390D01*
D02*
G37*
G36*
X1747322Y266240D02*
X1744678D01*
X1742125Y265556D01*
X1739835Y264234D01*
X1737966Y262365D01*
X1736644Y260075D01*
X1735960Y257522D01*
Y254878D01*
X1736644Y252325D01*
X1737966Y250035D01*
X1739835Y248166D01*
X1742125Y246844D01*
X1744678Y246160D01*
X1747322D01*
X1749875Y246844D01*
X1752165Y248166D01*
X1754034Y250035D01*
X1755356Y252325D01*
X1756040Y254878D01*
Y257522D01*
X1755356Y260075D01*
X1754034Y262365D01*
X1752165Y264234D01*
X1749875Y265556D01*
X1747322Y266240D01*
D02*
G37*
G36*
X1721922D02*
X1719278D01*
X1716725Y265556D01*
X1714435Y264234D01*
X1712566Y262365D01*
X1711244Y260075D01*
X1710560Y257522D01*
Y254878D01*
X1711244Y252325D01*
X1712566Y250035D01*
X1714435Y248166D01*
X1716725Y246844D01*
X1719278Y246160D01*
X1721922D01*
X1724475Y246844D01*
X1726765Y248166D01*
X1728634Y250035D01*
X1729956Y252325D01*
X1730640Y254878D01*
Y257522D01*
X1729956Y260075D01*
X1728634Y262365D01*
X1726765Y264234D01*
X1724475Y265556D01*
X1721922Y266240D01*
D02*
G37*
G36*
X1137653Y265990D02*
X1135009D01*
X1132456Y265306D01*
X1130166Y263984D01*
X1128297Y262115D01*
X1126975Y259825D01*
X1126291Y257272D01*
Y254628D01*
X1126975Y252075D01*
X1128297Y249785D01*
X1130166Y247916D01*
X1132456Y246594D01*
X1135009Y245910D01*
X1137653D01*
X1140207Y246594D01*
X1142496Y247916D01*
X1144365Y249785D01*
X1145687Y252075D01*
X1146371Y254628D01*
Y257272D01*
X1145687Y259825D01*
X1144365Y262115D01*
X1142496Y263984D01*
X1140207Y265306D01*
X1137653Y265990D01*
D02*
G37*
G36*
X1112253D02*
X1109609D01*
X1107056Y265306D01*
X1104766Y263984D01*
X1102897Y262115D01*
X1101575Y259825D01*
X1100891Y257272D01*
Y254628D01*
X1101575Y252075D01*
X1102897Y249785D01*
X1104766Y247916D01*
X1107056Y246594D01*
X1109609Y245910D01*
X1112253D01*
X1114807Y246594D01*
X1117096Y247916D01*
X1118965Y249785D01*
X1120287Y252075D01*
X1120971Y254628D01*
Y257272D01*
X1120287Y259825D01*
X1118965Y262115D01*
X1117096Y263984D01*
X1114807Y265306D01*
X1112253Y265990D01*
D02*
G37*
G36*
X1747322Y240840D02*
X1744678D01*
X1742125Y240156D01*
X1739835Y238834D01*
X1737966Y236965D01*
X1736644Y234675D01*
X1735960Y232122D01*
Y229478D01*
X1736644Y226925D01*
X1737966Y224635D01*
X1739835Y222766D01*
X1742125Y221444D01*
X1744678Y220760D01*
X1747322D01*
X1749875Y221444D01*
X1752165Y222766D01*
X1754034Y224635D01*
X1755356Y226925D01*
X1756040Y229478D01*
Y232122D01*
X1755356Y234675D01*
X1754034Y236965D01*
X1752165Y238834D01*
X1749875Y240156D01*
X1747322Y240840D01*
D02*
G37*
G36*
X1721922D02*
X1719278D01*
X1716725Y240156D01*
X1714435Y238834D01*
X1712566Y236965D01*
X1711244Y234675D01*
X1710560Y232122D01*
Y229478D01*
X1711244Y226925D01*
X1712566Y224635D01*
X1714435Y222766D01*
X1716725Y221444D01*
X1719278Y220760D01*
X1721922D01*
X1724475Y221444D01*
X1726765Y222766D01*
X1728634Y224635D01*
X1729956Y226925D01*
X1730640Y229478D01*
Y232122D01*
X1729956Y234675D01*
X1728634Y236965D01*
X1726765Y238834D01*
X1724475Y240156D01*
X1721922Y240840D01*
D02*
G37*
G36*
X1137653Y240590D02*
X1135009D01*
X1132456Y239906D01*
X1130166Y238584D01*
X1128297Y236715D01*
X1126975Y234425D01*
X1126291Y231872D01*
Y229228D01*
X1126975Y226675D01*
X1128297Y224385D01*
X1130166Y222516D01*
X1132456Y221194D01*
X1135009Y220510D01*
X1137653D01*
X1140207Y221194D01*
X1142496Y222516D01*
X1144365Y224385D01*
X1145687Y226675D01*
X1146371Y229228D01*
Y231872D01*
X1145687Y234425D01*
X1144365Y236715D01*
X1142496Y238584D01*
X1140207Y239906D01*
X1137653Y240590D01*
D02*
G37*
G36*
X1112253D02*
X1109609D01*
X1107056Y239906D01*
X1104766Y238584D01*
X1102897Y236715D01*
X1101575Y234425D01*
X1100891Y231872D01*
Y229228D01*
X1101575Y226675D01*
X1102897Y224385D01*
X1104766Y222516D01*
X1107056Y221194D01*
X1109609Y220510D01*
X1112253D01*
X1114807Y221194D01*
X1117096Y222516D01*
X1118965Y224385D01*
X1120287Y226675D01*
X1120971Y229228D01*
Y231872D01*
X1120287Y234425D01*
X1118965Y236715D01*
X1117096Y238584D01*
X1114807Y239906D01*
X1112253Y240590D01*
D02*
G37*
G36*
X1747322Y215440D02*
X1744678D01*
X1742125Y214756D01*
X1739835Y213434D01*
X1737966Y211565D01*
X1736644Y209275D01*
X1735960Y206722D01*
Y204078D01*
X1736644Y201525D01*
X1737966Y199235D01*
X1739835Y197366D01*
X1742125Y196044D01*
X1744678Y195360D01*
X1747322D01*
X1749875Y196044D01*
X1752165Y197366D01*
X1754034Y199235D01*
X1755356Y201525D01*
X1756040Y204078D01*
Y206722D01*
X1755356Y209275D01*
X1754034Y211565D01*
X1752165Y213434D01*
X1749875Y214756D01*
X1747322Y215440D01*
D02*
G37*
G36*
X1721922D02*
X1719278D01*
X1716725Y214756D01*
X1714435Y213434D01*
X1712566Y211565D01*
X1711244Y209275D01*
X1710560Y206722D01*
Y204078D01*
X1711244Y201525D01*
X1712566Y199235D01*
X1714435Y197366D01*
X1716725Y196044D01*
X1719278Y195360D01*
X1721922D01*
X1724475Y196044D01*
X1726765Y197366D01*
X1728634Y199235D01*
X1729956Y201525D01*
X1730640Y204078D01*
Y206722D01*
X1729956Y209275D01*
X1728634Y211565D01*
X1726765Y213434D01*
X1724475Y214756D01*
X1721922Y215440D01*
D02*
G37*
G36*
X1137653Y215190D02*
X1135009D01*
X1132456Y214506D01*
X1130166Y213184D01*
X1128297Y211315D01*
X1126975Y209025D01*
X1126291Y206472D01*
Y203828D01*
X1126975Y201275D01*
X1128297Y198985D01*
X1130166Y197116D01*
X1132456Y195794D01*
X1135009Y195110D01*
X1137653D01*
X1140207Y195794D01*
X1142496Y197116D01*
X1144365Y198985D01*
X1145687Y201275D01*
X1146371Y203828D01*
Y206472D01*
X1145687Y209025D01*
X1144365Y211315D01*
X1142496Y213184D01*
X1140207Y214506D01*
X1137653Y215190D01*
D02*
G37*
G36*
X1112253D02*
X1109609D01*
X1107056Y214506D01*
X1104766Y213184D01*
X1102897Y211315D01*
X1101575Y209025D01*
X1100891Y206472D01*
Y203828D01*
X1101575Y201275D01*
X1102897Y198985D01*
X1104766Y197116D01*
X1107056Y195794D01*
X1109609Y195110D01*
X1112253D01*
X1114807Y195794D01*
X1117096Y197116D01*
X1118965Y198985D01*
X1120287Y201275D01*
X1120971Y203828D01*
Y206472D01*
X1120287Y209025D01*
X1118965Y211315D01*
X1117096Y213184D01*
X1114807Y214506D01*
X1112253Y215190D01*
D02*
G37*
G36*
X1747322Y190040D02*
X1744678D01*
X1742125Y189356D01*
X1739835Y188034D01*
X1737966Y186165D01*
X1736644Y183875D01*
X1735960Y181322D01*
Y178678D01*
X1736644Y176125D01*
X1737966Y173835D01*
X1739835Y171966D01*
X1742125Y170644D01*
X1744678Y169960D01*
X1747322D01*
X1749875Y170644D01*
X1752165Y171966D01*
X1754034Y173835D01*
X1755356Y176125D01*
X1756040Y178678D01*
Y181322D01*
X1755356Y183875D01*
X1754034Y186165D01*
X1752165Y188034D01*
X1749875Y189356D01*
X1747322Y190040D01*
D02*
G37*
G36*
X1721922D02*
X1719278D01*
X1716725Y189356D01*
X1714435Y188034D01*
X1712566Y186165D01*
X1711244Y183875D01*
X1710560Y181322D01*
Y178678D01*
X1711244Y176125D01*
X1712566Y173835D01*
X1714435Y171966D01*
X1716725Y170644D01*
X1719278Y169960D01*
X1721922D01*
X1724475Y170644D01*
X1726765Y171966D01*
X1728634Y173835D01*
X1729956Y176125D01*
X1730640Y178678D01*
Y181322D01*
X1729956Y183875D01*
X1728634Y186165D01*
X1726765Y188034D01*
X1724475Y189356D01*
X1721922Y190040D01*
D02*
G37*
G36*
X1137653Y189790D02*
X1135009D01*
X1132456Y189106D01*
X1130166Y187784D01*
X1128297Y185915D01*
X1126975Y183625D01*
X1126291Y181072D01*
Y178428D01*
X1126975Y175875D01*
X1128297Y173585D01*
X1130166Y171716D01*
X1132456Y170394D01*
X1135009Y169710D01*
X1137653D01*
X1140207Y170394D01*
X1142496Y171716D01*
X1144365Y173585D01*
X1145687Y175875D01*
X1146371Y178428D01*
Y181072D01*
X1145687Y183625D01*
X1144365Y185915D01*
X1142496Y187784D01*
X1140207Y189106D01*
X1137653Y189790D01*
D02*
G37*
G36*
X1112253D02*
X1109609D01*
X1107056Y189106D01*
X1104766Y187784D01*
X1102897Y185915D01*
X1101575Y183625D01*
X1100891Y181072D01*
Y178428D01*
X1101575Y175875D01*
X1102897Y173585D01*
X1104766Y171716D01*
X1107056Y170394D01*
X1109609Y169710D01*
X1112253D01*
X1114807Y170394D01*
X1117096Y171716D01*
X1118965Y173585D01*
X1120287Y175875D01*
X1120971Y178428D01*
Y181072D01*
X1120287Y183625D01*
X1118965Y185915D01*
X1117096Y187784D01*
X1114807Y189106D01*
X1112253Y189790D01*
D02*
G37*
G36*
X1811857Y170860D02*
X1808143D01*
X1804499Y170135D01*
X1801067Y168713D01*
X1797978Y166649D01*
X1795351Y164022D01*
X1793287Y160933D01*
X1791865Y157501D01*
X1791140Y153857D01*
Y150142D01*
X1791865Y146499D01*
X1793287Y143067D01*
X1795351Y139978D01*
X1797978Y137351D01*
X1801067Y135287D01*
X1804499Y133865D01*
X1808143Y133140D01*
X1811857D01*
X1815501Y133865D01*
X1818933Y135287D01*
X1822022Y137351D01*
X1824649Y139978D01*
X1826713Y143067D01*
X1828135Y146499D01*
X1828860Y150142D01*
Y153857D01*
X1828135Y157501D01*
X1826713Y160933D01*
X1824649Y164022D01*
X1822022Y166649D01*
X1818933Y168713D01*
X1815501Y170135D01*
X1811857Y170860D01*
D02*
G37*
G36*
X1291857D02*
X1288143D01*
X1284499Y170135D01*
X1281067Y168713D01*
X1277978Y166649D01*
X1275351Y164022D01*
X1273287Y160933D01*
X1271865Y157501D01*
X1271141Y153857D01*
Y150142D01*
X1271865Y146499D01*
X1273287Y143067D01*
X1275351Y139978D01*
X1277978Y137351D01*
X1281067Y135287D01*
X1284499Y133865D01*
X1288143Y133140D01*
X1291857D01*
X1295501Y133865D01*
X1298933Y135287D01*
X1302022Y137351D01*
X1304649Y139978D01*
X1306713Y143067D01*
X1308135Y146499D01*
X1308860Y150142D01*
Y153857D01*
X1308135Y157501D01*
X1306713Y160933D01*
X1304649Y164022D01*
X1302022Y166649D01*
X1298933Y168713D01*
X1295501Y170135D01*
X1291857Y170860D01*
D02*
G37*
%LPD*%
D13*
X1757310Y632515D02*
Y757692D01*
X1720600Y611800D02*
X1732150Y623350D01*
X1715590Y799413D02*
X1757310Y757692D01*
X1703404Y930741D02*
X1715590Y918556D01*
X1748144Y623350D02*
X1757310Y632515D01*
X1732150Y623350D02*
X1748144D01*
X1703404Y930741D02*
Y940146D01*
X1701500Y942051D02*
X1703404Y940146D01*
X1715590Y799413D02*
Y918556D01*
X1690190Y667610D02*
Y943956D01*
X1680784Y953361D02*
X1690190Y943956D01*
X1671415Y953361D02*
X1680784D01*
X1690190Y667610D02*
X1720600Y637200D01*
X1662010Y943956D02*
X1671415Y953361D01*
X1652604Y943956D02*
X1662010D01*
X1650700Y942051D02*
X1652604Y943956D01*
X1734690Y397290D02*
X1746000Y408600D01*
X1715915Y397290D02*
X1734690D01*
X1664790Y448416D02*
X1715915Y397290D01*
X1664790Y448416D02*
Y921336D01*
X1674195Y930741D01*
Y940146D01*
X1676100Y942051D01*
D16*
X1290000Y772000D02*
D03*
X1810000D02*
D03*
X1290000Y152000D02*
D03*
X1810000D02*
D03*
D18*
X1676100Y942051D02*
D03*
Y916651D02*
D03*
X1650700Y942051D02*
D03*
Y916651D02*
D03*
X1599900Y942051D02*
D03*
X1625300Y916651D02*
D03*
Y942051D02*
D03*
X1701500Y916651D02*
D03*
X1726900D02*
D03*
X1701500Y942051D02*
D03*
X1726900D02*
D03*
X1447498D02*
D03*
Y916651D02*
D03*
X1422098Y942051D02*
D03*
Y916651D02*
D03*
X1371298Y942051D02*
D03*
X1396698Y916651D02*
D03*
Y942051D02*
D03*
X1472898Y916651D02*
D03*
X1498298D02*
D03*
X1472898Y942051D02*
D03*
X1498298D02*
D03*
X1720600Y180000D02*
D03*
Y205400D02*
D03*
Y230800D02*
D03*
X1746000Y180000D02*
D03*
Y205400D02*
D03*
Y230800D02*
D03*
X1720600Y307000D02*
D03*
X1746000D02*
D03*
X1720600Y357800D02*
D03*
X1746000D02*
D03*
X1720600Y383200D02*
D03*
X1746000D02*
D03*
X1720600Y408600D02*
D03*
X1746000D02*
D03*
X1720600Y434000D02*
D03*
X1746000D02*
D03*
X1720600Y484800D02*
D03*
X1746000D02*
D03*
X1720600Y535600D02*
D03*
X1746000D02*
D03*
X1720600Y586400D02*
D03*
X1746000D02*
D03*
X1720600Y662600D02*
D03*
X1746000Y637200D02*
D03*
X1720600D02*
D03*
X1746000Y611800D02*
D03*
X1720600D02*
D03*
X1746000Y561000D02*
D03*
X1720600D02*
D03*
X1746000Y510200D02*
D03*
X1720600D02*
D03*
X1746000Y459400D02*
D03*
X1720600D02*
D03*
X1746000Y332400D02*
D03*
X1720600D02*
D03*
X1746000Y281600D02*
D03*
X1720600D02*
D03*
X1746000Y256200D02*
D03*
X1720600D02*
D03*
X1110931Y179750D02*
D03*
Y205150D02*
D03*
Y230550D02*
D03*
X1136331Y179750D02*
D03*
Y205150D02*
D03*
Y230550D02*
D03*
X1110931Y306750D02*
D03*
X1136331D02*
D03*
X1110931Y357550D02*
D03*
X1136331D02*
D03*
X1110931Y382950D02*
D03*
X1136331D02*
D03*
X1110931Y408350D02*
D03*
X1136331D02*
D03*
X1110931Y433750D02*
D03*
X1136331D02*
D03*
X1110931Y484550D02*
D03*
X1136331D02*
D03*
X1110931Y535350D02*
D03*
X1136331D02*
D03*
X1110931Y586150D02*
D03*
X1136331D02*
D03*
X1110931Y662350D02*
D03*
X1136331Y636950D02*
D03*
X1110931D02*
D03*
X1136331Y611550D02*
D03*
X1110931D02*
D03*
X1136331Y560750D02*
D03*
X1110931D02*
D03*
X1136331Y509950D02*
D03*
X1110931D02*
D03*
X1136331Y459150D02*
D03*
X1110931D02*
D03*
X1136331Y332150D02*
D03*
X1110931D02*
D03*
X1136331Y281350D02*
D03*
X1110931D02*
D03*
X1136331Y255950D02*
D03*
X1110931D02*
D03*
D19*
X1599900Y916651D02*
D03*
X1371298D02*
D03*
D20*
X1746000Y662600D02*
D03*
X1136331Y662350D02*
D03*
M02*
