%TF.GenerationSoftware,Altium Limited,Altium Designer,23.6.0 (18)*%
G04 Layer_Physical_Order=1*
G04 Layer_Color=255*
%FSLAX45Y45*%
%MOMM*%
%TF.SameCoordinates,8094E8B3-5A3C-4876-ADF7-68A746E10FBF*%
%TF.FilePolarity,Positive*%
%TF.FileFunction,Copper,L1,Top,Signal*%
%TF.Part,Single*%
G01*
G75*
%TA.AperFunction,Conductor*%
%ADD10C,0.25400*%
%TA.AperFunction,ComponentPad*%
G04:AMPARAMS|DCode=11|XSize=1.95mm|YSize=1.95mm|CornerRadius=0.4875mm|HoleSize=0mm|Usage=FLASHONLY|Rotation=270.000|XOffset=0mm|YOffset=0mm|HoleType=Round|Shape=RoundedRectangle|*
%AMROUNDEDRECTD11*
21,1,1.95000,0.97500,0,0,270.0*
21,1,0.97500,1.95000,0,0,270.0*
1,1,0.97500,-0.48750,-0.48750*
1,1,0.97500,-0.48750,0.48750*
1,1,0.97500,0.48750,0.48750*
1,1,0.97500,0.48750,-0.48750*
%
%ADD11ROUNDEDRECTD11*%
%ADD12C,1.95000*%
%ADD13C,1.50000*%
G04:AMPARAMS|DCode=14|XSize=1.5mm|YSize=1.5mm|CornerRadius=0.375mm|HoleSize=0mm|Usage=FLASHONLY|Rotation=0.000|XOffset=0mm|YOffset=0mm|HoleType=Round|Shape=RoundedRectangle|*
%AMROUNDEDRECTD14*
21,1,1.50000,0.75000,0,0,0.0*
21,1,0.75000,1.50000,0,0,0.0*
1,1,0.75000,0.37500,-0.37500*
1,1,0.75000,-0.37500,-0.37500*
1,1,0.75000,-0.37500,0.37500*
1,1,0.75000,0.37500,0.37500*
%
%ADD14ROUNDEDRECTD14*%
G04:AMPARAMS|DCode=15|XSize=1.5mm|YSize=1.5mm|CornerRadius=0.375mm|HoleSize=0mm|Usage=FLASHONLY|Rotation=270.000|XOffset=0mm|YOffset=0mm|HoleType=Round|Shape=RoundedRectangle|*
%AMROUNDEDRECTD15*
21,1,1.50000,0.75000,0,0,270.0*
21,1,0.75000,1.50000,0,0,270.0*
1,1,0.75000,-0.37500,-0.37500*
1,1,0.75000,-0.37500,0.37500*
1,1,0.75000,0.37500,0.37500*
1,1,0.75000,0.37500,-0.37500*
%
%ADD15ROUNDEDRECTD15*%
%TA.AperFunction,ViaPad*%
%ADD16C,3.50000*%
%ADD17C,1.27000*%
G36*
X17800000Y1260000D02*
X10800000D01*
Y11550000D01*
X17800000D01*
Y1260000D01*
D02*
G37*
%LPC*%
G36*
X15053232Y11184400D02*
X15052715D01*
Y11096700D01*
X15140414D01*
Y11097218D01*
X15133572Y11122753D01*
X15120354Y11145647D01*
X15101662Y11164340D01*
X15078767Y11177558D01*
X15053232Y11184400D01*
D02*
G37*
G36*
X15027315D02*
X15026796D01*
X15001260Y11177558D01*
X14978368Y11164340D01*
X14959674Y11145647D01*
X14946457Y11122753D01*
X14939615Y11097218D01*
Y11096700D01*
X15027315D01*
Y11184400D01*
D02*
G37*
G36*
X13783218D02*
X13782700D01*
Y11096700D01*
X13870399D01*
Y11097218D01*
X13863557Y11122753D01*
X13850340Y11145647D01*
X13831647Y11164340D01*
X13808752Y11177558D01*
X13783218Y11184400D01*
D02*
G37*
G36*
X13757300D02*
X13756783D01*
X13731247Y11177558D01*
X13708353Y11164340D01*
X13689661Y11145647D01*
X13676442Y11122753D01*
X13669600Y11097218D01*
Y11096700D01*
X13757300D01*
Y11184400D01*
D02*
G37*
G36*
X13529218D02*
X13528700D01*
Y11096700D01*
X13616400D01*
Y11097218D01*
X13609558Y11122753D01*
X13596339Y11145647D01*
X13577647Y11164340D01*
X13554753Y11177558D01*
X13529218Y11184400D01*
D02*
G37*
G36*
X12767218D02*
X12766700D01*
Y11096700D01*
X12854401D01*
Y11097218D01*
X12847559Y11122753D01*
X12834340Y11145647D01*
X12815646Y11164340D01*
X12792753Y11177558D01*
X12767218Y11184400D01*
D02*
G37*
G36*
X12741300D02*
X12740782D01*
X12715247Y11177558D01*
X12692353Y11164340D01*
X12673660Y11145647D01*
X12660442Y11122753D01*
X12653600Y11097218D01*
Y11096700D01*
X12741300D01*
Y11184400D01*
D02*
G37*
G36*
X15140414Y11071300D02*
X15052715D01*
Y10983600D01*
X15053232D01*
X15078767Y10990442D01*
X15101662Y11003660D01*
X15120354Y11022353D01*
X15133572Y11045247D01*
X15140414Y11070782D01*
Y11071300D01*
D02*
G37*
G36*
X15027315D02*
X14939615D01*
Y11070782D01*
X14946457Y11045247D01*
X14959674Y11022353D01*
X14978368Y11003660D01*
X15001260Y10990442D01*
X15026796Y10983600D01*
X15027315D01*
Y11071300D01*
D02*
G37*
G36*
X14799232Y11184400D02*
X14772797D01*
X14747261Y11177558D01*
X14724367Y11164340D01*
X14705675Y11145647D01*
X14692458Y11122753D01*
X14685616Y11097218D01*
Y11070782D01*
X14692458Y11045247D01*
X14705675Y11022353D01*
X14724367Y11003660D01*
X14747261Y10990442D01*
X14772797Y10983600D01*
X14799232D01*
X14824767Y10990442D01*
X14847661Y11003660D01*
X14866354Y11022353D01*
X14879572Y11045247D01*
X14886414Y11070782D01*
Y11097218D01*
X14879572Y11122753D01*
X14866354Y11145647D01*
X14847661Y11164340D01*
X14824767Y11177558D01*
X14799232Y11184400D01*
D02*
G37*
G36*
X13870399Y11071300D02*
X13782700D01*
Y10983600D01*
X13783218D01*
X13808752Y10990442D01*
X13831647Y11003660D01*
X13850340Y11022353D01*
X13863557Y11045247D01*
X13870399Y11070782D01*
Y11071300D01*
D02*
G37*
G36*
X13757300D02*
X13669600D01*
Y11070782D01*
X13676442Y11045247D01*
X13689661Y11022353D01*
X13708353Y11003660D01*
X13731247Y10990442D01*
X13756783Y10983600D01*
X13757300D01*
Y11071300D01*
D02*
G37*
G36*
X13616400D02*
X13528700D01*
Y10983600D01*
X13529218D01*
X13554753Y10990442D01*
X13577647Y11003660D01*
X13596339Y11022353D01*
X13609558Y11045247D01*
X13616400Y11070782D01*
Y11071300D01*
D02*
G37*
G36*
X12854401D02*
X12766700D01*
Y10983600D01*
X12767218D01*
X12792753Y10990442D01*
X12815646Y11003660D01*
X12834340Y11022353D01*
X12847559Y11045247D01*
X12854401Y11070782D01*
Y11071300D01*
D02*
G37*
G36*
X12741300D02*
X12653600D01*
Y11070782D01*
X12660442Y11045247D01*
X12673660Y11022353D01*
X12692353Y11003660D01*
X12715247Y10990442D01*
X12740782Y10983600D01*
X12741300D01*
Y11071300D01*
D02*
G37*
G36*
X12513218Y11184400D02*
X12486782D01*
X12461247Y11177558D01*
X12438353Y11164340D01*
X12419660Y11145647D01*
X12406442Y11122753D01*
X12399600Y11097218D01*
Y11070782D01*
X12406442Y11045247D01*
X12419660Y11022353D01*
X12438353Y11003660D01*
X12461247Y10990442D01*
X12486782Y10983600D01*
X12513218D01*
X12538753Y10990442D01*
X12561647Y11003660D01*
X12580340Y11022353D01*
X12593558Y11045247D01*
X12600400Y11070782D01*
Y11097218D01*
X12593558Y11122753D01*
X12580340Y11145647D01*
X12561647Y11164340D01*
X12538753Y11177558D01*
X12513218Y11184400D01*
D02*
G37*
G36*
X15027315Y10930400D02*
X15026796D01*
X15001260Y10923558D01*
X14978368Y10910340D01*
X14959674Y10891647D01*
X14946457Y10868753D01*
X14939615Y10843218D01*
Y10842700D01*
X15027315D01*
Y10930400D01*
D02*
G37*
G36*
X13783218D02*
X13782700D01*
Y10842700D01*
X13870399D01*
Y10843218D01*
X13863557Y10868753D01*
X13850340Y10891647D01*
X13831647Y10910340D01*
X13808752Y10923558D01*
X13783218Y10930400D01*
D02*
G37*
G36*
X13757300D02*
X13756783D01*
X13731247Y10923558D01*
X13708353Y10910340D01*
X13689661Y10891647D01*
X13676442Y10868753D01*
X13669600Y10843218D01*
Y10842700D01*
X13757300D01*
Y10930400D01*
D02*
G37*
G36*
X13529218D02*
X13528700D01*
Y10842700D01*
X13616400D01*
Y10843218D01*
X13609558Y10868753D01*
X13596339Y10891647D01*
X13577647Y10910340D01*
X13554753Y10923558D01*
X13529218Y10930400D01*
D02*
G37*
G36*
X13503300D02*
X13502782D01*
X13477248Y10923558D01*
X13454353Y10910340D01*
X13435660Y10891647D01*
X13422443Y10868753D01*
X13415601Y10843218D01*
Y10842700D01*
X13503300D01*
Y10930400D01*
D02*
G37*
G36*
X12767218D02*
X12766700D01*
Y10842700D01*
X12854401D01*
Y10843218D01*
X12847559Y10868753D01*
X12834340Y10891647D01*
X12815646Y10910340D01*
X12792753Y10923558D01*
X12767218Y10930400D01*
D02*
G37*
G36*
X12741300D02*
X12740782D01*
X12715247Y10923558D01*
X12692353Y10910340D01*
X12673660Y10891647D01*
X12660442Y10868753D01*
X12653600Y10843218D01*
Y10842700D01*
X12741300D01*
Y10930400D01*
D02*
G37*
G36*
X15027315Y10817300D02*
X14939615D01*
Y10816782D01*
X14946457Y10791247D01*
X14959674Y10768353D01*
X14978368Y10749660D01*
X15001260Y10736442D01*
X15026796Y10729600D01*
X15027315D01*
Y10817300D01*
D02*
G37*
G36*
X13870399D02*
X13782700D01*
Y10729600D01*
X13783218D01*
X13808752Y10736442D01*
X13831647Y10749660D01*
X13850340Y10768353D01*
X13863557Y10791247D01*
X13870399Y10816782D01*
Y10817300D01*
D02*
G37*
G36*
X13757300D02*
X13669600D01*
Y10816782D01*
X13676442Y10791247D01*
X13689661Y10768353D01*
X13708353Y10749660D01*
X13731247Y10736442D01*
X13756783Y10729600D01*
X13757300D01*
Y10817300D01*
D02*
G37*
G36*
X13616400D02*
X13528700D01*
Y10729600D01*
X13529218D01*
X13554753Y10736442D01*
X13577647Y10749660D01*
X13596339Y10768353D01*
X13609558Y10791247D01*
X13616400Y10816782D01*
Y10817300D01*
D02*
G37*
G36*
X13503300D02*
X13415601D01*
Y10816782D01*
X13422443Y10791247D01*
X13435660Y10768353D01*
X13454353Y10749660D01*
X13477248Y10736442D01*
X13502782Y10729600D01*
X13503300D01*
Y10817300D01*
D02*
G37*
G36*
X13021217Y10930400D02*
X12994781D01*
X12969247Y10923558D01*
X12946353Y10910340D01*
X12927660Y10891647D01*
X12914442Y10868753D01*
X12907600Y10843218D01*
Y10816782D01*
X12914442Y10791247D01*
X12927660Y10768353D01*
X12946353Y10749660D01*
X12969247Y10736442D01*
X12994781Y10729600D01*
X13021217D01*
X13046753Y10736442D01*
X13069647Y10749660D01*
X13088341Y10768353D01*
X13101558Y10791247D01*
X13108400Y10816782D01*
Y10843218D01*
X13101558Y10868753D01*
X13088341Y10891647D01*
X13069647Y10910340D01*
X13046753Y10923558D01*
X13021217Y10930400D01*
D02*
G37*
G36*
X12854401Y10817300D02*
X12766700D01*
Y10729600D01*
X12767218D01*
X12792753Y10736442D01*
X12815646Y10749660D01*
X12834340Y10768353D01*
X12847559Y10791247D01*
X12854401Y10816782D01*
Y10817300D01*
D02*
G37*
G36*
X12741300D02*
X12653600D01*
Y10816782D01*
X12660442Y10791247D01*
X12673660Y10768353D01*
X12692353Y10749660D01*
X12715247Y10736442D01*
X12740782Y10729600D01*
X12741300D01*
Y10817300D01*
D02*
G37*
G36*
X14823514Y10931632D02*
X14748515D01*
X14723972Y10926750D01*
X14703166Y10912848D01*
X14689264Y10892042D01*
X14684383Y10867500D01*
Y10792500D01*
X14689264Y10767958D01*
X14703166Y10747152D01*
X14723972Y10733250D01*
X14748515Y10728368D01*
X14823514D01*
X14848058Y10733250D01*
X14868863Y10747152D01*
X14882765Y10767958D01*
X14887646Y10792500D01*
Y10867500D01*
X14882765Y10892042D01*
X14868863Y10912848D01*
X14848058Y10926750D01*
X14823514Y10931632D01*
D02*
G37*
G36*
X12537500D02*
X12462500D01*
X12437958Y10926750D01*
X12417152Y10912848D01*
X12403250Y10892042D01*
X12398368Y10867500D01*
Y10792500D01*
X12403250Y10767958D01*
X12417152Y10747152D01*
X12437958Y10733250D01*
X12462500Y10728368D01*
X12537500D01*
X12562042Y10733250D01*
X12582848Y10747152D01*
X12596750Y10767958D01*
X12601632Y10792500D01*
Y10867500D01*
X12596750Y10892042D01*
X12582848Y10912848D01*
X12562042Y10926750D01*
X12537500Y10931632D01*
D02*
G37*
G36*
X17193750Y8733540D02*
X17096249D01*
X17076894Y8730991D01*
X17058855Y8723520D01*
X17043365Y8711634D01*
X17031480Y8696145D01*
X17024010Y8678107D01*
X17021460Y8658750D01*
Y8561250D01*
X17024010Y8541893D01*
X17031480Y8523855D01*
X17043365Y8508366D01*
X17058855Y8496480D01*
X17076894Y8489009D01*
X17096249Y8486460D01*
X17193750D01*
X17213107Y8489009D01*
X17231145Y8496480D01*
X17246634Y8508366D01*
X17258521Y8523855D01*
X17265991Y8541893D01*
X17268539Y8561250D01*
Y8658750D01*
X17265991Y8678107D01*
X17258521Y8696145D01*
X17246634Y8711634D01*
X17231145Y8723520D01*
X17213107Y8730991D01*
X17193750Y8733540D01*
D02*
G37*
G36*
X17161180Y8232900D02*
X17157700D01*
Y8122700D01*
X17267900D01*
Y8126180D01*
X17259525Y8157438D01*
X17243344Y8185462D01*
X17220462Y8208345D01*
X17192438Y8224525D01*
X17161180Y8232900D01*
D02*
G37*
G36*
X17132300D02*
X17128819D01*
X17097562Y8224525D01*
X17069537Y8208345D01*
X17046655Y8185462D01*
X17030475Y8157438D01*
X17022099Y8126180D01*
Y8122700D01*
X17132300D01*
Y8232900D01*
D02*
G37*
G36*
X17267900Y8097300D02*
X17157700D01*
Y7987100D01*
X17161180D01*
X17192438Y7995475D01*
X17220462Y8011656D01*
X17243344Y8034538D01*
X17259525Y8062562D01*
X17267900Y8093820D01*
Y8097300D01*
D02*
G37*
G36*
X17132300D02*
X17022099D01*
Y8093820D01*
X17030475Y8062562D01*
X17046655Y8034538D01*
X17069537Y8011656D01*
X17097562Y7995475D01*
X17128819Y7987100D01*
X17132300D01*
Y8097300D01*
D02*
G37*
G36*
X17219218Y6726400D02*
X17192783D01*
X17167247Y6719558D01*
X17144353Y6706340D01*
X17125661Y6687647D01*
X17112442Y6664753D01*
X17105600Y6639218D01*
Y6612782D01*
X17112442Y6587247D01*
X17125661Y6564353D01*
X17144353Y6545660D01*
X17167247Y6532442D01*
X17192783Y6525600D01*
X17219218D01*
X17244753Y6532442D01*
X17267647Y6545660D01*
X17286340Y6564353D01*
X17299557Y6587247D01*
X17306400Y6612782D01*
Y6639218D01*
X17299557Y6664753D01*
X17286340Y6687647D01*
X17267647Y6706340D01*
X17244753Y6719558D01*
X17219218Y6726400D01*
D02*
G37*
G36*
X16670000Y11448847D02*
X13334000D01*
X13319135Y11445889D01*
X13306532Y11437469D01*
X13046649Y11177586D01*
X13021217Y11184400D01*
X12994781D01*
X12969247Y11177558D01*
X12946353Y11164340D01*
X12927660Y11145647D01*
X12914442Y11122753D01*
X12907600Y11097218D01*
Y11070782D01*
X12914442Y11045247D01*
X12927660Y11022353D01*
X12946353Y11003660D01*
X12969247Y10990442D01*
X12994781Y10983600D01*
X13021217D01*
X13046753Y10990442D01*
X13069647Y11003660D01*
X13088341Y11022353D01*
X13101558Y11045247D01*
X13108400Y11070782D01*
Y11097218D01*
X13101585Y11122648D01*
X13350092Y11371154D01*
X13546774D01*
X13548024Y11358454D01*
X13535133Y11355889D01*
X13522533Y11347469D01*
X13362531Y11187468D01*
X13354111Y11174866D01*
X13351154Y11160000D01*
Y11154794D01*
X13338454Y11149533D01*
X13323647Y11164340D01*
X13300752Y11177558D01*
X13275218Y11184400D01*
X13248782D01*
X13223247Y11177558D01*
X13200352Y11164340D01*
X13181660Y11145647D01*
X13168442Y11122753D01*
X13161600Y11097218D01*
Y11070782D01*
X13168442Y11045247D01*
X13181660Y11022353D01*
X13200352Y11003660D01*
X13223247Y10990442D01*
X13248782Y10983600D01*
X13275218D01*
X13300752Y10990442D01*
X13323647Y11003660D01*
X13338454Y11018466D01*
X13351154Y11013206D01*
Y10974091D01*
X13300648Y10923586D01*
X13275218Y10930400D01*
X13248782D01*
X13223247Y10923558D01*
X13200352Y10910340D01*
X13181660Y10891647D01*
X13168442Y10868753D01*
X13161600Y10843218D01*
Y10816782D01*
X13168442Y10791247D01*
X13181660Y10768353D01*
X13200352Y10749660D01*
X13223247Y10736442D01*
X13248782Y10729600D01*
X13275218D01*
X13300752Y10736442D01*
X13323647Y10749660D01*
X13342340Y10768353D01*
X13355557Y10791247D01*
X13362399Y10816782D01*
Y10843218D01*
X13355586Y10868649D01*
X13417468Y10930531D01*
X13425890Y10943134D01*
X13428847Y10958000D01*
Y11011206D01*
X13441547Y11016466D01*
X13454353Y11003660D01*
X13477248Y10990442D01*
X13502782Y10983600D01*
X13503300D01*
Y11084000D01*
Y11184400D01*
X13502782D01*
X13481630Y11178732D01*
X13475056Y11190119D01*
X13566090Y11281153D01*
X15690788D01*
X15692039Y11268453D01*
X15679147Y11265889D01*
X15666547Y11257468D01*
X15586662Y11177586D01*
X15561232Y11184400D01*
X15534796D01*
X15509261Y11177558D01*
X15486366Y11164340D01*
X15467674Y11145647D01*
X15454457Y11122753D01*
X15447615Y11097218D01*
Y11070782D01*
X15454457Y11045247D01*
X15467674Y11022353D01*
X15486366Y11003660D01*
X15509261Y10990442D01*
X15534796Y10983600D01*
X15561232D01*
X15586768Y10990442D01*
X15609660Y11003660D01*
X15628354Y11022353D01*
X15641573Y11045247D01*
X15648415Y11070782D01*
Y11097218D01*
X15641600Y11122649D01*
X15710104Y11191153D01*
X15764932D01*
X15766605Y11178453D01*
X15763261Y11177558D01*
X15740367Y11164340D01*
X15721674Y11145647D01*
X15708456Y11122753D01*
X15701614Y11097218D01*
Y11070782D01*
X15708429Y11045351D01*
X15633646Y10970569D01*
X15625224Y10957966D01*
X15622269Y10943100D01*
Y10914327D01*
X15610535Y10909467D01*
X15609660Y10910340D01*
X15586768Y10923558D01*
X15561232Y10930400D01*
X15534796D01*
X15509261Y10923558D01*
X15486366Y10910340D01*
X15467674Y10891647D01*
X15454457Y10868753D01*
X15447615Y10843218D01*
Y10816782D01*
X15454457Y10791247D01*
X15462456Y10777392D01*
X13253909Y8568846D01*
X13193227D01*
X13191975Y8581546D01*
X13204866Y8584111D01*
X13217468Y8592531D01*
X15197469Y10572531D01*
X15205888Y10585134D01*
X15208846Y10600000D01*
Y10755220D01*
X15221545Y10760481D01*
X15232367Y10749660D01*
X15255261Y10736442D01*
X15280795Y10729600D01*
X15307233D01*
X15332767Y10736442D01*
X15355661Y10749660D01*
X15374355Y10768353D01*
X15387572Y10791247D01*
X15394414Y10816782D01*
Y10843218D01*
X15387572Y10868753D01*
X15374355Y10891647D01*
X15355661Y10910340D01*
X15332767Y10923558D01*
X15307233Y10930400D01*
X15280795D01*
X15255261Y10923558D01*
X15232367Y10910340D01*
X15221545Y10899519D01*
X15208846Y10904780D01*
Y10943895D01*
X15255367Y10990414D01*
X15280795Y10983600D01*
X15307233D01*
X15332767Y10990442D01*
X15355661Y11003660D01*
X15374355Y11022353D01*
X15387572Y11045247D01*
X15394414Y11070782D01*
Y11097218D01*
X15387572Y11122753D01*
X15374355Y11145647D01*
X15355661Y11164340D01*
X15332767Y11177558D01*
X15307233Y11184400D01*
X15280795D01*
X15255261Y11177558D01*
X15232367Y11164340D01*
X15213673Y11145647D01*
X15200456Y11122753D01*
X15193616Y11097218D01*
Y11070782D01*
X15200429Y11045351D01*
X15142531Y10987454D01*
X15134109Y10974851D01*
X15131152Y10959985D01*
Y10896237D01*
X15118452Y10893548D01*
X15101662Y10910340D01*
X15078767Y10923558D01*
X15053232Y10930400D01*
X15052715D01*
Y10830000D01*
Y10729600D01*
X15053232D01*
X15078767Y10736442D01*
X15101662Y10749660D01*
X15118452Y10766452D01*
X15131152Y10763763D01*
Y10616091D01*
X13173909Y8658847D01*
X12850000D01*
X12835133Y8655889D01*
X12822533Y8647469D01*
X10942531Y6767468D01*
X10934110Y6754866D01*
X10931153Y6740000D01*
Y6508812D01*
X10934110Y6493947D01*
X10942531Y6481344D01*
X11015727Y6408149D01*
X11008912Y6382718D01*
Y6356282D01*
X11015754Y6330747D01*
X11028972Y6307853D01*
X11047665Y6289160D01*
X11070559Y6275942D01*
X11096094Y6269100D01*
X11097329D01*
X11102190Y6257367D01*
X11100891Y6256069D01*
X11092471Y6243466D01*
X11089514Y6228600D01*
Y6214137D01*
X11070559Y6209058D01*
X11047665Y6195840D01*
X11028972Y6177147D01*
X11015754Y6154253D01*
X11008912Y6128718D01*
Y6102282D01*
X11015754Y6076747D01*
X11028972Y6053853D01*
X11047665Y6035160D01*
X11070559Y6021942D01*
X11096094Y6015100D01*
X11122530D01*
X11148065Y6021942D01*
X11170959Y6035160D01*
X11189652Y6053853D01*
X11202870Y6076747D01*
X11209712Y6102282D01*
Y6128718D01*
X11202870Y6154253D01*
X11189652Y6177147D01*
X11170959Y6195840D01*
X11167207Y6198007D01*
Y6212510D01*
X11266200Y6311503D01*
X11278451Y6312585D01*
X11280275Y6312525D01*
X11282972Y6307853D01*
X11301665Y6289160D01*
X11324559Y6275942D01*
X11350094Y6269100D01*
X11376530D01*
X11402065Y6275942D01*
X11424959Y6289160D01*
X11443652Y6307853D01*
X11456870Y6330747D01*
X11463712Y6356282D01*
Y6382718D01*
X11456898Y6408149D01*
X12949902Y7901154D01*
X13320000D01*
X13334866Y7904111D01*
X13347469Y7912532D01*
X16083482Y10648546D01*
X16091904Y10661149D01*
X16094861Y10676014D01*
Y10736496D01*
X16117661Y10749660D01*
X16136354Y10768353D01*
X16149573Y10791247D01*
X16156413Y10816782D01*
Y10843218D01*
X16149573Y10868753D01*
X16136354Y10891647D01*
X16117661Y10910340D01*
X16094768Y10923558D01*
X16069232Y10930400D01*
X16042796D01*
X16017261Y10923558D01*
X15994366Y10910340D01*
X15975674Y10891647D01*
X15966661Y10876035D01*
X15953961Y10879438D01*
Y10927009D01*
X16017366Y10990414D01*
X16042796Y10983600D01*
X16069232D01*
X16094768Y10990442D01*
X16117661Y11003660D01*
X16136354Y11022353D01*
X16149573Y11045247D01*
X16156413Y11070782D01*
Y11097218D01*
X16149573Y11122753D01*
X16136354Y11145647D01*
X16117661Y11164340D01*
X16094768Y11177558D01*
X16091425Y11178453D01*
X16093097Y11191153D01*
X16223911D01*
X16301154Y11113909D01*
Y9076279D01*
X11401961Y4177086D01*
X11376530Y4183900D01*
X11350094D01*
X11324559Y4177058D01*
X11301665Y4163840D01*
X11282972Y4145147D01*
X11269754Y4122253D01*
X11262912Y4096718D01*
Y4070282D01*
X11269754Y4044747D01*
X11282972Y4021853D01*
X11301665Y4003160D01*
X11324559Y3989942D01*
X11350094Y3983100D01*
X11376530D01*
X11402065Y3989942D01*
X11424959Y4003160D01*
X11443652Y4021853D01*
X11456870Y4044747D01*
X11463712Y4070282D01*
Y4096718D01*
X11456898Y4122149D01*
X16367468Y9032719D01*
X16375890Y9045322D01*
X16378847Y9060188D01*
Y11130000D01*
X16375890Y11144866D01*
X16367468Y11157469D01*
X16267468Y11257468D01*
X16254866Y11265889D01*
X16241975Y11268453D01*
X16243227Y11281153D01*
X16573909D01*
X17421153Y10433910D01*
Y6727364D01*
X17397958Y6722750D01*
X17377151Y6708848D01*
X17363251Y6688042D01*
X17358368Y6663500D01*
Y6588500D01*
X17363251Y6563958D01*
X17377151Y6543152D01*
X17397958Y6529250D01*
X17422501Y6524368D01*
X17497501D01*
X17521553Y6529152D01*
X17523811Y6529392D01*
X17534253Y6522667D01*
Y6501191D01*
X17498650Y6465586D01*
X17473218Y6472400D01*
X17446782D01*
X17421246Y6465558D01*
X17398354Y6452340D01*
X17379660Y6433647D01*
X17366441Y6410753D01*
X17359599Y6385218D01*
Y6358782D01*
X17366441Y6333247D01*
X17379660Y6310353D01*
X17398354Y6291660D01*
X17421246Y6278442D01*
X17446782Y6271600D01*
X17473218D01*
X17498753Y6278442D01*
X17521648Y6291660D01*
X17540340Y6310353D01*
X17553558Y6333247D01*
X17560400Y6358782D01*
Y6385218D01*
X17553586Y6410649D01*
X17600569Y6457631D01*
X17608989Y6470234D01*
X17611946Y6485100D01*
Y10506900D01*
X17608989Y10521766D01*
X17600569Y10534369D01*
X16697469Y11437469D01*
X16684866Y11445889D01*
X16670000Y11448847D01*
D02*
G37*
G36*
X17219218Y6472400D02*
X17192783D01*
X17167247Y6465558D01*
X17144353Y6452340D01*
X17125661Y6433647D01*
X17112442Y6410753D01*
X17105600Y6385218D01*
Y6358782D01*
X17112442Y6333247D01*
X17125661Y6310353D01*
X17144353Y6291660D01*
X17167247Y6278442D01*
X17192783Y6271600D01*
X17219218D01*
X17244753Y6278442D01*
X17267647Y6291660D01*
X17286340Y6310353D01*
X17299557Y6333247D01*
X17306400Y6358782D01*
Y6385218D01*
X17299557Y6410753D01*
X17286340Y6433647D01*
X17267647Y6452340D01*
X17244753Y6465558D01*
X17219218Y6472400D01*
D02*
G37*
G36*
X17473218Y6218400D02*
X17446782D01*
X17421246Y6211558D01*
X17398354Y6198340D01*
X17379660Y6179647D01*
X17366441Y6156753D01*
X17359599Y6131218D01*
Y6104782D01*
X17366441Y6079247D01*
X17379660Y6056353D01*
X17398354Y6037660D01*
X17421246Y6024442D01*
X17446782Y6017600D01*
X17473218D01*
X17498753Y6024442D01*
X17521648Y6037660D01*
X17540340Y6056353D01*
X17553558Y6079247D01*
X17560400Y6104782D01*
Y6131218D01*
X17553558Y6156753D01*
X17540340Y6179647D01*
X17521648Y6198340D01*
X17498753Y6211558D01*
X17473218Y6218400D01*
D02*
G37*
G36*
X17219218D02*
X17192783D01*
X17167247Y6211558D01*
X17144353Y6198340D01*
X17125661Y6179647D01*
X17112442Y6156753D01*
X17105600Y6131218D01*
Y6104782D01*
X17112442Y6079247D01*
X17125661Y6056353D01*
X17144353Y6037660D01*
X17167247Y6024442D01*
X17192783Y6017600D01*
X17219218D01*
X17244753Y6024442D01*
X17267647Y6037660D01*
X17286340Y6056353D01*
X17299557Y6079247D01*
X17306400Y6104782D01*
Y6131218D01*
X17299557Y6156753D01*
X17286340Y6179647D01*
X17267647Y6198340D01*
X17244753Y6211558D01*
X17219218Y6218400D01*
D02*
G37*
G36*
X11376530Y6215900D02*
X11350094D01*
X11324559Y6209058D01*
X11301665Y6195840D01*
X11282972Y6177147D01*
X11269754Y6154253D01*
X11262912Y6128718D01*
Y6102282D01*
X11269754Y6076747D01*
X11282972Y6053853D01*
X11301665Y6035160D01*
X11324559Y6021942D01*
X11350094Y6015100D01*
X11376530D01*
X11402065Y6021942D01*
X11424959Y6035160D01*
X11443652Y6053853D01*
X11456870Y6076747D01*
X11463712Y6102282D01*
Y6128718D01*
X11456870Y6154253D01*
X11443652Y6177147D01*
X11424959Y6195840D01*
X11402065Y6209058D01*
X11376530Y6215900D01*
D02*
G37*
G36*
X17473218Y5964400D02*
X17446782D01*
X17421246Y5957558D01*
X17398354Y5944340D01*
X17379660Y5925647D01*
X17366441Y5902753D01*
X17359599Y5877218D01*
Y5850782D01*
X17366441Y5825247D01*
X17379660Y5802353D01*
X17398354Y5783660D01*
X17421246Y5770442D01*
X17446782Y5763600D01*
X17473218D01*
X17498753Y5770442D01*
X17521648Y5783660D01*
X17540340Y5802353D01*
X17553558Y5825247D01*
X17560400Y5850782D01*
Y5877218D01*
X17553558Y5902753D01*
X17540340Y5925647D01*
X17521648Y5944340D01*
X17498753Y5957558D01*
X17473218Y5964400D01*
D02*
G37*
G36*
X17219218D02*
X17192783D01*
X17167247Y5957558D01*
X17144353Y5944340D01*
X17125661Y5925647D01*
X17112442Y5902753D01*
X17105600Y5877218D01*
Y5850782D01*
X17112442Y5825247D01*
X17125661Y5802353D01*
X17144353Y5783660D01*
X17167247Y5770442D01*
X17192783Y5763600D01*
X17219218D01*
X17244753Y5770442D01*
X17267647Y5783660D01*
X17286340Y5802353D01*
X17299557Y5825247D01*
X17306400Y5850782D01*
Y5877218D01*
X17299557Y5902753D01*
X17286340Y5925647D01*
X17267647Y5944340D01*
X17244753Y5957558D01*
X17219218Y5964400D01*
D02*
G37*
G36*
X11376530Y5961900D02*
X11350094D01*
X11324559Y5955058D01*
X11301665Y5941840D01*
X11282972Y5923147D01*
X11269754Y5900253D01*
X11262912Y5874718D01*
Y5848282D01*
X11269754Y5822747D01*
X11282972Y5799853D01*
X11301665Y5781160D01*
X11324559Y5767942D01*
X11350094Y5761100D01*
X11376530D01*
X11402065Y5767942D01*
X11424959Y5781160D01*
X11443652Y5799853D01*
X11456870Y5822747D01*
X11463712Y5848282D01*
Y5874718D01*
X11456870Y5900253D01*
X11443652Y5923147D01*
X11424959Y5941840D01*
X11402065Y5955058D01*
X11376530Y5961900D01*
D02*
G37*
G36*
X11122530D02*
X11096094D01*
X11070559Y5955058D01*
X11047665Y5941840D01*
X11028972Y5923147D01*
X11015754Y5900253D01*
X11008912Y5874718D01*
Y5848282D01*
X11015754Y5822747D01*
X11028972Y5799853D01*
X11047665Y5781160D01*
X11070559Y5767942D01*
X11096094Y5761100D01*
X11122530D01*
X11148065Y5767942D01*
X11170959Y5781160D01*
X11189652Y5799853D01*
X11202870Y5822747D01*
X11209712Y5848282D01*
Y5874718D01*
X11202870Y5900253D01*
X11189652Y5923147D01*
X11170959Y5941840D01*
X11148065Y5955058D01*
X11122530Y5961900D01*
D02*
G37*
G36*
X17473218Y5710400D02*
X17446782D01*
X17421246Y5703558D01*
X17398354Y5690340D01*
X17379660Y5671647D01*
X17366441Y5648753D01*
X17359599Y5623218D01*
Y5596782D01*
X17366441Y5571247D01*
X17379660Y5548353D01*
X17398354Y5529660D01*
X17421246Y5516442D01*
X17446782Y5509600D01*
X17473218D01*
X17498753Y5516442D01*
X17521648Y5529660D01*
X17540340Y5548353D01*
X17553558Y5571247D01*
X17560400Y5596782D01*
Y5623218D01*
X17553558Y5648753D01*
X17540340Y5671647D01*
X17521648Y5690340D01*
X17498753Y5703558D01*
X17473218Y5710400D01*
D02*
G37*
G36*
X17219218D02*
X17192783D01*
X17167247Y5703558D01*
X17144353Y5690340D01*
X17125661Y5671647D01*
X17112442Y5648753D01*
X17105600Y5623218D01*
Y5596782D01*
X17112442Y5571247D01*
X17125661Y5548353D01*
X17144353Y5529660D01*
X17167247Y5516442D01*
X17192783Y5509600D01*
X17219218D01*
X17244753Y5516442D01*
X17267647Y5529660D01*
X17286340Y5548353D01*
X17299557Y5571247D01*
X17306400Y5596782D01*
Y5623218D01*
X17299557Y5648753D01*
X17286340Y5671647D01*
X17267647Y5690340D01*
X17244753Y5703558D01*
X17219218Y5710400D01*
D02*
G37*
G36*
X11376530Y5707900D02*
X11350094D01*
X11324559Y5701058D01*
X11301665Y5687840D01*
X11282972Y5669147D01*
X11269754Y5646253D01*
X11262912Y5620718D01*
Y5594282D01*
X11269754Y5568747D01*
X11282972Y5545853D01*
X11301665Y5527160D01*
X11324559Y5513942D01*
X11350094Y5507100D01*
X11376530D01*
X11402065Y5513942D01*
X11424959Y5527160D01*
X11443652Y5545853D01*
X11456870Y5568747D01*
X11463712Y5594282D01*
Y5620718D01*
X11456870Y5646253D01*
X11443652Y5669147D01*
X11424959Y5687840D01*
X11402065Y5701058D01*
X11376530Y5707900D01*
D02*
G37*
G36*
X11122530D02*
X11096094D01*
X11070559Y5701058D01*
X11047665Y5687840D01*
X11028972Y5669147D01*
X11015754Y5646253D01*
X11008912Y5620718D01*
Y5594282D01*
X11015754Y5568747D01*
X11028972Y5545853D01*
X11047665Y5527160D01*
X11070559Y5513942D01*
X11096094Y5507100D01*
X11122530D01*
X11148065Y5513942D01*
X11170959Y5527160D01*
X11189652Y5545853D01*
X11202870Y5568747D01*
X11209712Y5594282D01*
Y5620718D01*
X11202870Y5646253D01*
X11189652Y5669147D01*
X11170959Y5687840D01*
X11148065Y5701058D01*
X11122530Y5707900D01*
D02*
G37*
G36*
X17473218Y5456400D02*
X17446782D01*
X17421246Y5449558D01*
X17398354Y5436340D01*
X17379660Y5417647D01*
X17366441Y5394753D01*
X17359599Y5369218D01*
Y5342782D01*
X17366441Y5317247D01*
X17379660Y5294353D01*
X17398354Y5275660D01*
X17421246Y5262442D01*
X17446782Y5255600D01*
X17473218D01*
X17498753Y5262442D01*
X17521648Y5275660D01*
X17540340Y5294353D01*
X17553558Y5317247D01*
X17560400Y5342782D01*
Y5369218D01*
X17553558Y5394753D01*
X17540340Y5417647D01*
X17521648Y5436340D01*
X17498753Y5449558D01*
X17473218Y5456400D01*
D02*
G37*
G36*
X17219218D02*
X17192783D01*
X17167247Y5449558D01*
X17144353Y5436340D01*
X17125661Y5417647D01*
X17112442Y5394753D01*
X17105600Y5369218D01*
Y5342782D01*
X17112442Y5317247D01*
X17125661Y5294353D01*
X17144353Y5275660D01*
X17167247Y5262442D01*
X17192783Y5255600D01*
X17219218D01*
X17244753Y5262442D01*
X17267647Y5275660D01*
X17286340Y5294353D01*
X17299557Y5317247D01*
X17306400Y5342782D01*
Y5369218D01*
X17299557Y5394753D01*
X17286340Y5417647D01*
X17267647Y5436340D01*
X17244753Y5449558D01*
X17219218Y5456400D01*
D02*
G37*
G36*
X11376530Y5453900D02*
X11350094D01*
X11324559Y5447058D01*
X11301665Y5433840D01*
X11282972Y5415147D01*
X11269754Y5392253D01*
X11262912Y5366718D01*
Y5340282D01*
X11269754Y5314747D01*
X11282972Y5291853D01*
X11301665Y5273160D01*
X11324559Y5259942D01*
X11350094Y5253100D01*
X11376530D01*
X11402065Y5259942D01*
X11424959Y5273160D01*
X11443652Y5291853D01*
X11456870Y5314747D01*
X11463712Y5340282D01*
Y5366718D01*
X11456870Y5392253D01*
X11443652Y5415147D01*
X11424959Y5433840D01*
X11402065Y5447058D01*
X11376530Y5453900D01*
D02*
G37*
G36*
X11122530D02*
X11096094D01*
X11070559Y5447058D01*
X11047665Y5433840D01*
X11028972Y5415147D01*
X11015754Y5392253D01*
X11008912Y5366718D01*
Y5340282D01*
X11015754Y5314747D01*
X11028972Y5291853D01*
X11047665Y5273160D01*
X11070559Y5259942D01*
X11096094Y5253100D01*
X11122530D01*
X11148065Y5259942D01*
X11170959Y5273160D01*
X11189652Y5291853D01*
X11202870Y5314747D01*
X11209712Y5340282D01*
Y5366718D01*
X11202870Y5392253D01*
X11189652Y5415147D01*
X11170959Y5433840D01*
X11148065Y5447058D01*
X11122530Y5453900D01*
D02*
G37*
G36*
X17473218Y5202400D02*
X17446782D01*
X17421246Y5195558D01*
X17398354Y5182340D01*
X17379660Y5163647D01*
X17366441Y5140753D01*
X17359599Y5115218D01*
Y5088782D01*
X17366441Y5063247D01*
X17379660Y5040353D01*
X17398354Y5021660D01*
X17421246Y5008442D01*
X17446782Y5001600D01*
X17473218D01*
X17498753Y5008442D01*
X17521648Y5021660D01*
X17540340Y5040353D01*
X17553558Y5063247D01*
X17560400Y5088782D01*
Y5115218D01*
X17553558Y5140753D01*
X17540340Y5163647D01*
X17521648Y5182340D01*
X17498753Y5195558D01*
X17473218Y5202400D01*
D02*
G37*
G36*
X17219218D02*
X17192783D01*
X17167247Y5195558D01*
X17144353Y5182340D01*
X17125661Y5163647D01*
X17112442Y5140753D01*
X17105600Y5115218D01*
Y5088782D01*
X17112442Y5063247D01*
X17125661Y5040353D01*
X17144353Y5021660D01*
X17167247Y5008442D01*
X17192783Y5001600D01*
X17219218D01*
X17244753Y5008442D01*
X17267647Y5021660D01*
X17286340Y5040353D01*
X17299557Y5063247D01*
X17306400Y5088782D01*
Y5115218D01*
X17299557Y5140753D01*
X17286340Y5163647D01*
X17267647Y5182340D01*
X17244753Y5195558D01*
X17219218Y5202400D01*
D02*
G37*
G36*
X11376530Y5199900D02*
X11350094D01*
X11324559Y5193058D01*
X11301665Y5179840D01*
X11282972Y5161147D01*
X11269754Y5138253D01*
X11262912Y5112718D01*
Y5086282D01*
X11269754Y5060747D01*
X11282972Y5037853D01*
X11301665Y5019160D01*
X11324559Y5005942D01*
X11350094Y4999100D01*
X11376530D01*
X11402065Y5005942D01*
X11424959Y5019160D01*
X11443652Y5037853D01*
X11456870Y5060747D01*
X11463712Y5086282D01*
Y5112718D01*
X11456870Y5138253D01*
X11443652Y5161147D01*
X11424959Y5179840D01*
X11402065Y5193058D01*
X11376530Y5199900D01*
D02*
G37*
G36*
X11122530D02*
X11096094D01*
X11070559Y5193058D01*
X11047665Y5179840D01*
X11028972Y5161147D01*
X11015754Y5138253D01*
X11008912Y5112718D01*
Y5086282D01*
X11015754Y5060747D01*
X11028972Y5037853D01*
X11047665Y5019160D01*
X11070559Y5005942D01*
X11096094Y4999100D01*
X11122530D01*
X11148065Y5005942D01*
X11170959Y5019160D01*
X11189652Y5037853D01*
X11202870Y5060747D01*
X11209712Y5086282D01*
Y5112718D01*
X11202870Y5138253D01*
X11189652Y5161147D01*
X11170959Y5179840D01*
X11148065Y5193058D01*
X11122530Y5199900D01*
D02*
G37*
G36*
X17473218Y4948400D02*
X17446782D01*
X17421246Y4941558D01*
X17398354Y4928340D01*
X17379660Y4909647D01*
X17366441Y4886753D01*
X17359599Y4861218D01*
Y4834782D01*
X17366441Y4809247D01*
X17379660Y4786353D01*
X17398354Y4767660D01*
X17421246Y4754442D01*
X17446782Y4747600D01*
X17473218D01*
X17498753Y4754442D01*
X17521648Y4767660D01*
X17540340Y4786353D01*
X17553558Y4809247D01*
X17560400Y4834782D01*
Y4861218D01*
X17553558Y4886753D01*
X17540340Y4909647D01*
X17521648Y4928340D01*
X17498753Y4941558D01*
X17473218Y4948400D01*
D02*
G37*
G36*
X17219218D02*
X17192783D01*
X17167247Y4941558D01*
X17144353Y4928340D01*
X17125661Y4909647D01*
X17112442Y4886753D01*
X17105600Y4861218D01*
Y4834782D01*
X17112442Y4809247D01*
X17125661Y4786353D01*
X17144353Y4767660D01*
X17167247Y4754442D01*
X17192783Y4747600D01*
X17219218D01*
X17244753Y4754442D01*
X17267647Y4767660D01*
X17286340Y4786353D01*
X17299557Y4809247D01*
X17306400Y4834782D01*
Y4861218D01*
X17299557Y4886753D01*
X17286340Y4909647D01*
X17267647Y4928340D01*
X17244753Y4941558D01*
X17219218Y4948400D01*
D02*
G37*
G36*
X11376530Y4945900D02*
X11350094D01*
X11324559Y4939058D01*
X11301665Y4925840D01*
X11282972Y4907147D01*
X11269754Y4884253D01*
X11262912Y4858718D01*
Y4832282D01*
X11269754Y4806747D01*
X11282972Y4783853D01*
X11301665Y4765160D01*
X11324559Y4751942D01*
X11350094Y4745100D01*
X11376530D01*
X11402065Y4751942D01*
X11424959Y4765160D01*
X11443652Y4783853D01*
X11456870Y4806747D01*
X11463712Y4832282D01*
Y4858718D01*
X11456870Y4884253D01*
X11443652Y4907147D01*
X11424959Y4925840D01*
X11402065Y4939058D01*
X11376530Y4945900D01*
D02*
G37*
G36*
X11122530D02*
X11096094D01*
X11070559Y4939058D01*
X11047665Y4925840D01*
X11028972Y4907147D01*
X11015754Y4884253D01*
X11008912Y4858718D01*
Y4832282D01*
X11015754Y4806747D01*
X11028972Y4783853D01*
X11047665Y4765160D01*
X11070559Y4751942D01*
X11096094Y4745100D01*
X11122530D01*
X11148065Y4751942D01*
X11170959Y4765160D01*
X11189652Y4783853D01*
X11202870Y4806747D01*
X11209712Y4832282D01*
Y4858718D01*
X11202870Y4884253D01*
X11189652Y4907147D01*
X11170959Y4925840D01*
X11148065Y4939058D01*
X11122530Y4945900D01*
D02*
G37*
G36*
X17473218Y4694400D02*
X17446782D01*
X17421246Y4687558D01*
X17398354Y4674340D01*
X17379660Y4655647D01*
X17366441Y4632753D01*
X17359599Y4607218D01*
Y4580782D01*
X17366441Y4555247D01*
X17379660Y4532353D01*
X17398354Y4513660D01*
X17421246Y4500442D01*
X17446782Y4493600D01*
X17473218D01*
X17498753Y4500442D01*
X17521648Y4513660D01*
X17540340Y4532353D01*
X17553558Y4555247D01*
X17560400Y4580782D01*
Y4607218D01*
X17553558Y4632753D01*
X17540340Y4655647D01*
X17521648Y4674340D01*
X17498753Y4687558D01*
X17473218Y4694400D01*
D02*
G37*
G36*
X17219218D02*
X17192783D01*
X17167247Y4687558D01*
X17144353Y4674340D01*
X17125661Y4655647D01*
X17112442Y4632753D01*
X17105600Y4607218D01*
Y4580782D01*
X17112442Y4555247D01*
X17125661Y4532353D01*
X17144353Y4513660D01*
X17167247Y4500442D01*
X17192783Y4493600D01*
X17219218D01*
X17244753Y4500442D01*
X17267647Y4513660D01*
X17286340Y4532353D01*
X17299557Y4555247D01*
X17306400Y4580782D01*
Y4607218D01*
X17299557Y4632753D01*
X17286340Y4655647D01*
X17267647Y4674340D01*
X17244753Y4687558D01*
X17219218Y4694400D01*
D02*
G37*
G36*
X11376530Y4691900D02*
X11350094D01*
X11324559Y4685058D01*
X11301665Y4671840D01*
X11282972Y4653147D01*
X11269754Y4630253D01*
X11262912Y4604718D01*
Y4578282D01*
X11269754Y4552747D01*
X11282972Y4529853D01*
X11301665Y4511160D01*
X11324559Y4497942D01*
X11350094Y4491100D01*
X11376530D01*
X11402065Y4497942D01*
X11424959Y4511160D01*
X11443652Y4529853D01*
X11456870Y4552747D01*
X11463712Y4578282D01*
Y4604718D01*
X11456870Y4630253D01*
X11443652Y4653147D01*
X11424959Y4671840D01*
X11402065Y4685058D01*
X11376530Y4691900D01*
D02*
G37*
G36*
X11122530D02*
X11096094D01*
X11070559Y4685058D01*
X11047665Y4671840D01*
X11028972Y4653147D01*
X11015754Y4630253D01*
X11008912Y4604718D01*
Y4578282D01*
X11015754Y4552747D01*
X11028972Y4529853D01*
X11047665Y4511160D01*
X11070559Y4497942D01*
X11096094Y4491100D01*
X11122530D01*
X11148065Y4497942D01*
X11170959Y4511160D01*
X11189652Y4529853D01*
X11202870Y4552747D01*
X11209712Y4578282D01*
Y4604718D01*
X11202870Y4630253D01*
X11189652Y4653147D01*
X11170959Y4671840D01*
X11148065Y4685058D01*
X11122530Y4691900D01*
D02*
G37*
G36*
X17473218Y4440400D02*
X17446782D01*
X17421246Y4433558D01*
X17398354Y4420340D01*
X17379660Y4401647D01*
X17366441Y4378753D01*
X17359599Y4353218D01*
Y4326782D01*
X17366441Y4301247D01*
X17379660Y4278353D01*
X17398354Y4259660D01*
X17421246Y4246442D01*
X17446782Y4239600D01*
X17473218D01*
X17498753Y4246442D01*
X17521648Y4259660D01*
X17540340Y4278353D01*
X17553558Y4301247D01*
X17560400Y4326782D01*
Y4353218D01*
X17553558Y4378753D01*
X17540340Y4401647D01*
X17521648Y4420340D01*
X17498753Y4433558D01*
X17473218Y4440400D01*
D02*
G37*
G36*
X17219218D02*
X17192783D01*
X17167247Y4433558D01*
X17144353Y4420340D01*
X17125661Y4401647D01*
X17112442Y4378753D01*
X17105600Y4353218D01*
Y4326782D01*
X17112442Y4301247D01*
X17125661Y4278353D01*
X17144353Y4259660D01*
X17167247Y4246442D01*
X17192783Y4239600D01*
X17219218D01*
X17244753Y4246442D01*
X17267647Y4259660D01*
X17286340Y4278353D01*
X17299557Y4301247D01*
X17306400Y4326782D01*
Y4353218D01*
X17299557Y4378753D01*
X17286340Y4401647D01*
X17267647Y4420340D01*
X17244753Y4433558D01*
X17219218Y4440400D01*
D02*
G37*
G36*
X11376530Y4437900D02*
X11350094D01*
X11324559Y4431058D01*
X11301665Y4417840D01*
X11282972Y4399147D01*
X11269754Y4376253D01*
X11262912Y4350718D01*
Y4324282D01*
X11269754Y4298747D01*
X11282972Y4275853D01*
X11301665Y4257160D01*
X11324559Y4243942D01*
X11350094Y4237100D01*
X11376530D01*
X11402065Y4243942D01*
X11424959Y4257160D01*
X11443652Y4275853D01*
X11456870Y4298747D01*
X11463712Y4324282D01*
Y4350718D01*
X11456870Y4376253D01*
X11443652Y4399147D01*
X11424959Y4417840D01*
X11402065Y4431058D01*
X11376530Y4437900D01*
D02*
G37*
G36*
X11122530D02*
X11096094D01*
X11070559Y4431058D01*
X11047665Y4417840D01*
X11028972Y4399147D01*
X11015754Y4376253D01*
X11008912Y4350718D01*
Y4324282D01*
X11015754Y4298747D01*
X11028972Y4275853D01*
X11047665Y4257160D01*
X11070559Y4243942D01*
X11096094Y4237100D01*
X11122530D01*
X11148065Y4243942D01*
X11170959Y4257160D01*
X11189652Y4275853D01*
X11202870Y4298747D01*
X11209712Y4324282D01*
Y4350718D01*
X11202870Y4376253D01*
X11189652Y4399147D01*
X11170959Y4417840D01*
X11148065Y4431058D01*
X11122530Y4437900D01*
D02*
G37*
G36*
X17219218Y4186400D02*
X17218701D01*
Y4098701D01*
X17306400D01*
Y4099218D01*
X17299557Y4124753D01*
X17286340Y4147647D01*
X17267647Y4166340D01*
X17244753Y4179558D01*
X17219218Y4186400D01*
D02*
G37*
G36*
X17193301D02*
X17192783D01*
X17167247Y4179558D01*
X17144353Y4166340D01*
X17125661Y4147647D01*
X17112442Y4124753D01*
X17105600Y4099218D01*
Y4098701D01*
X17193301D01*
Y4186400D01*
D02*
G37*
G36*
X17473218D02*
X17446782D01*
X17421246Y4179558D01*
X17398354Y4166340D01*
X17379660Y4147647D01*
X17366441Y4124753D01*
X17359599Y4099218D01*
Y4072782D01*
X17366441Y4047247D01*
X17379660Y4024353D01*
X17398354Y4005660D01*
X17421246Y3992442D01*
X17446782Y3985600D01*
X17473218D01*
X17498753Y3992442D01*
X17521648Y4005660D01*
X17540340Y4024353D01*
X17553558Y4047247D01*
X17560400Y4072782D01*
Y4099218D01*
X17553558Y4124753D01*
X17540340Y4147647D01*
X17521648Y4166340D01*
X17498753Y4179558D01*
X17473218Y4186400D01*
D02*
G37*
G36*
X17306400Y4073301D02*
X17218701D01*
Y3985600D01*
X17219218D01*
X17244753Y3992442D01*
X17267647Y4005660D01*
X17286340Y4024353D01*
X17299557Y4047247D01*
X17306400Y4072782D01*
Y4073301D01*
D02*
G37*
G36*
X17193301D02*
X17105600D01*
Y4072782D01*
X17112442Y4047247D01*
X17125661Y4024353D01*
X17144353Y4005660D01*
X17167247Y3992442D01*
X17192783Y3985600D01*
X17193301D01*
Y4073301D01*
D02*
G37*
G36*
X11122530Y4183900D02*
X11096094D01*
X11070559Y4177058D01*
X11047665Y4163840D01*
X11028972Y4145147D01*
X11015754Y4122253D01*
X11008912Y4096718D01*
Y4070282D01*
X11015754Y4044747D01*
X11028972Y4021853D01*
X11047665Y4003160D01*
X11070559Y3989942D01*
X11096094Y3983100D01*
X11122530D01*
X11148065Y3989942D01*
X11170959Y4003160D01*
X11189652Y4021853D01*
X11202870Y4044747D01*
X11209712Y4070282D01*
Y4096718D01*
X11202870Y4122253D01*
X11189652Y4145147D01*
X11170959Y4163840D01*
X11148065Y4177058D01*
X11122530Y4183900D01*
D02*
G37*
G36*
X17473218Y3932400D02*
X17446782D01*
X17421246Y3925558D01*
X17398354Y3912340D01*
X17379660Y3893647D01*
X17366441Y3870753D01*
X17359599Y3845218D01*
Y3818782D01*
X17366441Y3793247D01*
X17379660Y3770353D01*
X17398354Y3751660D01*
X17421246Y3738442D01*
X17446782Y3731600D01*
X17473218D01*
X17498753Y3738442D01*
X17521648Y3751660D01*
X17540340Y3770353D01*
X17553558Y3793247D01*
X17560400Y3818782D01*
Y3845218D01*
X17553558Y3870753D01*
X17540340Y3893647D01*
X17521648Y3912340D01*
X17498753Y3925558D01*
X17473218Y3932400D01*
D02*
G37*
G36*
X17219218D02*
X17192783D01*
X17167247Y3925558D01*
X17144353Y3912340D01*
X17125661Y3893647D01*
X17112442Y3870753D01*
X17105600Y3845218D01*
Y3818782D01*
X17112442Y3793247D01*
X17125661Y3770353D01*
X17144353Y3751660D01*
X17167247Y3738442D01*
X17192783Y3731600D01*
X17219218D01*
X17244753Y3738442D01*
X17267647Y3751660D01*
X17286340Y3770353D01*
X17299557Y3793247D01*
X17306400Y3818782D01*
Y3845218D01*
X17299557Y3870753D01*
X17286340Y3893647D01*
X17267647Y3912340D01*
X17244753Y3925558D01*
X17219218Y3932400D01*
D02*
G37*
G36*
X11376530Y3929900D02*
X11350094D01*
X11324559Y3923058D01*
X11301665Y3909840D01*
X11282972Y3891147D01*
X11269754Y3868253D01*
X11262912Y3842718D01*
Y3816282D01*
X11269754Y3790747D01*
X11282972Y3767853D01*
X11301665Y3749160D01*
X11324559Y3735942D01*
X11350094Y3729100D01*
X11376530D01*
X11402065Y3735942D01*
X11424959Y3749160D01*
X11443652Y3767853D01*
X11456870Y3790747D01*
X11463712Y3816282D01*
Y3842718D01*
X11456870Y3868253D01*
X11443652Y3891147D01*
X11424959Y3909840D01*
X11402065Y3923058D01*
X11376530Y3929900D01*
D02*
G37*
G36*
X11122530D02*
X11096094D01*
X11070559Y3923058D01*
X11047665Y3909840D01*
X11028972Y3891147D01*
X11015754Y3868253D01*
X11008912Y3842718D01*
Y3816282D01*
X11015754Y3790747D01*
X11028972Y3767853D01*
X11047665Y3749160D01*
X11070559Y3735942D01*
X11096094Y3729100D01*
X11122530D01*
X11148065Y3735942D01*
X11170959Y3749160D01*
X11189652Y3767853D01*
X11202870Y3790747D01*
X11209712Y3816282D01*
Y3842718D01*
X11202870Y3868253D01*
X11189652Y3891147D01*
X11170959Y3909840D01*
X11148065Y3923058D01*
X11122530Y3929900D01*
D02*
G37*
G36*
X17473218Y3678400D02*
X17446782D01*
X17421246Y3671558D01*
X17398354Y3658340D01*
X17379660Y3639647D01*
X17366441Y3616753D01*
X17359599Y3591218D01*
Y3564782D01*
X17366441Y3539247D01*
X17379660Y3516353D01*
X17398354Y3497660D01*
X17421246Y3484442D01*
X17446782Y3477600D01*
X17473218D01*
X17498753Y3484442D01*
X17521648Y3497660D01*
X17540340Y3516353D01*
X17553558Y3539247D01*
X17560400Y3564782D01*
Y3591218D01*
X17553558Y3616753D01*
X17540340Y3639647D01*
X17521648Y3658340D01*
X17498753Y3671558D01*
X17473218Y3678400D01*
D02*
G37*
G36*
X17219218D02*
X17192783D01*
X17167247Y3671558D01*
X17144353Y3658340D01*
X17125661Y3639647D01*
X17112442Y3616753D01*
X17105600Y3591218D01*
Y3564782D01*
X17112442Y3539247D01*
X17125661Y3516353D01*
X17144353Y3497660D01*
X17167247Y3484442D01*
X17192783Y3477600D01*
X17219218D01*
X17244753Y3484442D01*
X17267647Y3497660D01*
X17286340Y3516353D01*
X17299557Y3539247D01*
X17306400Y3564782D01*
Y3591218D01*
X17299557Y3616753D01*
X17286340Y3639647D01*
X17267647Y3658340D01*
X17244753Y3671558D01*
X17219218Y3678400D01*
D02*
G37*
G36*
X11376530Y3675900D02*
X11350094D01*
X11324559Y3669058D01*
X11301665Y3655840D01*
X11282972Y3637147D01*
X11269754Y3614253D01*
X11262912Y3588718D01*
Y3562282D01*
X11269754Y3536747D01*
X11282972Y3513853D01*
X11301665Y3495160D01*
X11324559Y3481942D01*
X11350094Y3475100D01*
X11376530D01*
X11402065Y3481942D01*
X11424959Y3495160D01*
X11443652Y3513853D01*
X11456870Y3536747D01*
X11463712Y3562282D01*
Y3588718D01*
X11456870Y3614253D01*
X11443652Y3637147D01*
X11424959Y3655840D01*
X11402065Y3669058D01*
X11376530Y3675900D01*
D02*
G37*
G36*
X11122530D02*
X11096094D01*
X11070559Y3669058D01*
X11047665Y3655840D01*
X11028972Y3637147D01*
X11015754Y3614253D01*
X11008912Y3588718D01*
Y3562282D01*
X11015754Y3536747D01*
X11028972Y3513853D01*
X11047665Y3495160D01*
X11070559Y3481942D01*
X11096094Y3475100D01*
X11122530D01*
X11148065Y3481942D01*
X11170959Y3495160D01*
X11189652Y3513853D01*
X11202870Y3536747D01*
X11209712Y3562282D01*
Y3588718D01*
X11202870Y3614253D01*
X11189652Y3637147D01*
X11170959Y3655840D01*
X11148065Y3669058D01*
X11122530Y3675900D01*
D02*
G37*
G36*
X17473218Y3424400D02*
X17446782D01*
X17421246Y3417558D01*
X17398354Y3404340D01*
X17379660Y3385647D01*
X17366441Y3362753D01*
X17359599Y3337218D01*
Y3310782D01*
X17366441Y3285247D01*
X17379660Y3262353D01*
X17398354Y3243660D01*
X17421246Y3230442D01*
X17446782Y3223600D01*
X17473218D01*
X17498753Y3230442D01*
X17521648Y3243660D01*
X17540340Y3262353D01*
X17553558Y3285247D01*
X17560400Y3310782D01*
Y3337218D01*
X17553558Y3362753D01*
X17540340Y3385647D01*
X17521648Y3404340D01*
X17498753Y3417558D01*
X17473218Y3424400D01*
D02*
G37*
G36*
X17219218D02*
X17192783D01*
X17167247Y3417558D01*
X17144353Y3404340D01*
X17125661Y3385647D01*
X17112442Y3362753D01*
X17105600Y3337218D01*
Y3310782D01*
X17112442Y3285247D01*
X17125661Y3262353D01*
X17144353Y3243660D01*
X17167247Y3230442D01*
X17192783Y3223600D01*
X17219218D01*
X17244753Y3230442D01*
X17267647Y3243660D01*
X17286340Y3262353D01*
X17299557Y3285247D01*
X17306400Y3310782D01*
Y3337218D01*
X17299557Y3362753D01*
X17286340Y3385647D01*
X17267647Y3404340D01*
X17244753Y3417558D01*
X17219218Y3424400D01*
D02*
G37*
G36*
X11376530Y3421900D02*
X11350094D01*
X11324559Y3415058D01*
X11301665Y3401840D01*
X11282972Y3383147D01*
X11269754Y3360253D01*
X11262912Y3334718D01*
Y3308282D01*
X11269754Y3282747D01*
X11282972Y3259853D01*
X11301665Y3241160D01*
X11324559Y3227942D01*
X11350094Y3221100D01*
X11376530D01*
X11402065Y3227942D01*
X11424959Y3241160D01*
X11443652Y3259853D01*
X11456870Y3282747D01*
X11463712Y3308282D01*
Y3334718D01*
X11456870Y3360253D01*
X11443652Y3383147D01*
X11424959Y3401840D01*
X11402065Y3415058D01*
X11376530Y3421900D01*
D02*
G37*
G36*
X11122530D02*
X11096094D01*
X11070559Y3415058D01*
X11047665Y3401840D01*
X11028972Y3383147D01*
X11015754Y3360253D01*
X11008912Y3334718D01*
Y3308282D01*
X11015754Y3282747D01*
X11028972Y3259853D01*
X11047665Y3241160D01*
X11070559Y3227942D01*
X11096094Y3221100D01*
X11122530D01*
X11148065Y3227942D01*
X11170959Y3241160D01*
X11189652Y3259853D01*
X11202870Y3282747D01*
X11209712Y3308282D01*
Y3334718D01*
X11202870Y3360253D01*
X11189652Y3383147D01*
X11170959Y3401840D01*
X11148065Y3415058D01*
X11122530Y3421900D01*
D02*
G37*
G36*
X17473218Y3170400D02*
X17446782D01*
X17421246Y3163558D01*
X17398354Y3150340D01*
X17379660Y3131647D01*
X17366441Y3108753D01*
X17359599Y3083218D01*
Y3056782D01*
X17366441Y3031247D01*
X17379660Y3008353D01*
X17398354Y2989660D01*
X17421246Y2976442D01*
X17446782Y2969600D01*
X17473218D01*
X17498753Y2976442D01*
X17521648Y2989660D01*
X17540340Y3008353D01*
X17553558Y3031247D01*
X17560400Y3056782D01*
Y3083218D01*
X17553558Y3108753D01*
X17540340Y3131647D01*
X17521648Y3150340D01*
X17498753Y3163558D01*
X17473218Y3170400D01*
D02*
G37*
G36*
X17219218D02*
X17192783D01*
X17167247Y3163558D01*
X17144353Y3150340D01*
X17125661Y3131647D01*
X17112442Y3108753D01*
X17105600Y3083218D01*
Y3056782D01*
X17112442Y3031247D01*
X17125661Y3008353D01*
X17144353Y2989660D01*
X17167247Y2976442D01*
X17192783Y2969600D01*
X17219218D01*
X17244753Y2976442D01*
X17267647Y2989660D01*
X17286340Y3008353D01*
X17299557Y3031247D01*
X17306400Y3056782D01*
Y3083218D01*
X17299557Y3108753D01*
X17286340Y3131647D01*
X17267647Y3150340D01*
X17244753Y3163558D01*
X17219218Y3170400D01*
D02*
G37*
G36*
X11376530Y3167900D02*
X11350094D01*
X11324559Y3161058D01*
X11301665Y3147840D01*
X11282972Y3129147D01*
X11269754Y3106253D01*
X11262912Y3080718D01*
Y3054282D01*
X11269754Y3028747D01*
X11282972Y3005853D01*
X11301665Y2987160D01*
X11324559Y2973942D01*
X11350094Y2967100D01*
X11376530D01*
X11402065Y2973942D01*
X11424959Y2987160D01*
X11443652Y3005853D01*
X11456870Y3028747D01*
X11463712Y3054282D01*
Y3080718D01*
X11456870Y3106253D01*
X11443652Y3129147D01*
X11424959Y3147840D01*
X11402065Y3161058D01*
X11376530Y3167900D01*
D02*
G37*
G36*
X11122530D02*
X11096094D01*
X11070559Y3161058D01*
X11047665Y3147840D01*
X11028972Y3129147D01*
X11015754Y3106253D01*
X11008912Y3080718D01*
Y3054282D01*
X11015754Y3028747D01*
X11028972Y3005853D01*
X11047665Y2987160D01*
X11070559Y2973942D01*
X11096094Y2967100D01*
X11122530D01*
X11148065Y2973942D01*
X11170959Y2987160D01*
X11189652Y3005853D01*
X11202870Y3028747D01*
X11209712Y3054282D01*
Y3080718D01*
X11202870Y3106253D01*
X11189652Y3129147D01*
X11170959Y3147840D01*
X11148065Y3161058D01*
X11122530Y3167900D01*
D02*
G37*
G36*
X17473218Y2916400D02*
X17446782D01*
X17421246Y2909558D01*
X17398354Y2896340D01*
X17379660Y2877647D01*
X17366441Y2854753D01*
X17359599Y2829218D01*
Y2802782D01*
X17366441Y2777247D01*
X17379660Y2754353D01*
X17398354Y2735660D01*
X17421246Y2722442D01*
X17446782Y2715600D01*
X17473218D01*
X17498753Y2722442D01*
X17521648Y2735660D01*
X17540340Y2754353D01*
X17553558Y2777247D01*
X17560400Y2802782D01*
Y2829218D01*
X17553558Y2854753D01*
X17540340Y2877647D01*
X17521648Y2896340D01*
X17498753Y2909558D01*
X17473218Y2916400D01*
D02*
G37*
G36*
X17219218D02*
X17192783D01*
X17167247Y2909558D01*
X17144353Y2896340D01*
X17125661Y2877647D01*
X17112442Y2854753D01*
X17105600Y2829218D01*
Y2802782D01*
X17112442Y2777247D01*
X17125661Y2754353D01*
X17144353Y2735660D01*
X17167247Y2722442D01*
X17192783Y2715600D01*
X17219218D01*
X17244753Y2722442D01*
X17267647Y2735660D01*
X17286340Y2754353D01*
X17299557Y2777247D01*
X17306400Y2802782D01*
Y2829218D01*
X17299557Y2854753D01*
X17286340Y2877647D01*
X17267647Y2896340D01*
X17244753Y2909558D01*
X17219218Y2916400D01*
D02*
G37*
G36*
X11376530Y2913900D02*
X11350094D01*
X11324559Y2907058D01*
X11301665Y2893840D01*
X11282972Y2875147D01*
X11269754Y2852253D01*
X11262912Y2826718D01*
Y2800282D01*
X11269754Y2774747D01*
X11282972Y2751853D01*
X11301665Y2733160D01*
X11324559Y2719942D01*
X11350094Y2713100D01*
X11376530D01*
X11402065Y2719942D01*
X11424959Y2733160D01*
X11443652Y2751853D01*
X11456870Y2774747D01*
X11463712Y2800282D01*
Y2826718D01*
X11456870Y2852253D01*
X11443652Y2875147D01*
X11424959Y2893840D01*
X11402065Y2907058D01*
X11376530Y2913900D01*
D02*
G37*
G36*
X11122530D02*
X11096094D01*
X11070559Y2907058D01*
X11047665Y2893840D01*
X11028972Y2875147D01*
X11015754Y2852253D01*
X11008912Y2826718D01*
Y2800282D01*
X11015754Y2774747D01*
X11028972Y2751853D01*
X11047665Y2733160D01*
X11070559Y2719942D01*
X11096094Y2713100D01*
X11122530D01*
X11148065Y2719942D01*
X11170959Y2733160D01*
X11189652Y2751853D01*
X11202870Y2774747D01*
X11209712Y2800282D01*
Y2826718D01*
X11202870Y2852253D01*
X11189652Y2875147D01*
X11170959Y2893840D01*
X11148065Y2907058D01*
X11122530Y2913900D01*
D02*
G37*
G36*
X17473218Y2662400D02*
X17446782D01*
X17421246Y2655558D01*
X17398354Y2642340D01*
X17379660Y2623647D01*
X17366441Y2600753D01*
X17359599Y2575218D01*
Y2548782D01*
X17366441Y2523247D01*
X17379660Y2500353D01*
X17398354Y2481660D01*
X17421246Y2468442D01*
X17446782Y2461600D01*
X17473218D01*
X17498753Y2468442D01*
X17521648Y2481660D01*
X17540340Y2500353D01*
X17553558Y2523247D01*
X17560400Y2548782D01*
Y2575218D01*
X17553558Y2600753D01*
X17540340Y2623647D01*
X17521648Y2642340D01*
X17498753Y2655558D01*
X17473218Y2662400D01*
D02*
G37*
G36*
X17219218D02*
X17192783D01*
X17167247Y2655558D01*
X17144353Y2642340D01*
X17125661Y2623647D01*
X17112442Y2600753D01*
X17105600Y2575218D01*
Y2548782D01*
X17112442Y2523247D01*
X17125661Y2500353D01*
X17144353Y2481660D01*
X17167247Y2468442D01*
X17192783Y2461600D01*
X17219218D01*
X17244753Y2468442D01*
X17267647Y2481660D01*
X17286340Y2500353D01*
X17299557Y2523247D01*
X17306400Y2548782D01*
Y2575218D01*
X17299557Y2600753D01*
X17286340Y2623647D01*
X17267647Y2642340D01*
X17244753Y2655558D01*
X17219218Y2662400D01*
D02*
G37*
G36*
X11376530Y2659900D02*
X11350094D01*
X11324559Y2653058D01*
X11301665Y2639840D01*
X11282972Y2621147D01*
X11269754Y2598253D01*
X11262912Y2572718D01*
Y2546282D01*
X11269754Y2520747D01*
X11282972Y2497853D01*
X11301665Y2479160D01*
X11324559Y2465942D01*
X11350094Y2459100D01*
X11376530D01*
X11402065Y2465942D01*
X11424959Y2479160D01*
X11443652Y2497853D01*
X11456870Y2520747D01*
X11463712Y2546282D01*
Y2572718D01*
X11456870Y2598253D01*
X11443652Y2621147D01*
X11424959Y2639840D01*
X11402065Y2653058D01*
X11376530Y2659900D01*
D02*
G37*
G36*
X11122530D02*
X11096094D01*
X11070559Y2653058D01*
X11047665Y2639840D01*
X11028972Y2621147D01*
X11015754Y2598253D01*
X11008912Y2572718D01*
Y2546282D01*
X11015754Y2520747D01*
X11028972Y2497853D01*
X11047665Y2479160D01*
X11070559Y2465942D01*
X11096094Y2459100D01*
X11122530D01*
X11148065Y2465942D01*
X11170959Y2479160D01*
X11189652Y2497853D01*
X11202870Y2520747D01*
X11209712Y2546282D01*
Y2572718D01*
X11202870Y2598253D01*
X11189652Y2621147D01*
X11170959Y2639840D01*
X11148065Y2653058D01*
X11122530Y2659900D01*
D02*
G37*
G36*
X17473218Y2408400D02*
X17446782D01*
X17421246Y2401558D01*
X17398354Y2388340D01*
X17379660Y2369647D01*
X17366441Y2346753D01*
X17359599Y2321218D01*
Y2294782D01*
X17366441Y2269247D01*
X17379660Y2246353D01*
X17398354Y2227660D01*
X17421246Y2214442D01*
X17446782Y2207600D01*
X17473218D01*
X17498753Y2214442D01*
X17521648Y2227660D01*
X17540340Y2246353D01*
X17553558Y2269247D01*
X17560400Y2294782D01*
Y2321218D01*
X17553558Y2346753D01*
X17540340Y2369647D01*
X17521648Y2388340D01*
X17498753Y2401558D01*
X17473218Y2408400D01*
D02*
G37*
G36*
X17219218D02*
X17192783D01*
X17167247Y2401558D01*
X17144353Y2388340D01*
X17125661Y2369647D01*
X17112442Y2346753D01*
X17105600Y2321218D01*
Y2294782D01*
X17112442Y2269247D01*
X17125661Y2246353D01*
X17144353Y2227660D01*
X17167247Y2214442D01*
X17192783Y2207600D01*
X17219218D01*
X17244753Y2214442D01*
X17267647Y2227660D01*
X17286340Y2246353D01*
X17299557Y2269247D01*
X17306400Y2294782D01*
Y2321218D01*
X17299557Y2346753D01*
X17286340Y2369647D01*
X17267647Y2388340D01*
X17244753Y2401558D01*
X17219218Y2408400D01*
D02*
G37*
G36*
X11376530Y2405900D02*
X11350094D01*
X11324559Y2399058D01*
X11301665Y2385840D01*
X11282972Y2367147D01*
X11269754Y2344253D01*
X11262912Y2318718D01*
Y2292282D01*
X11269754Y2266747D01*
X11282972Y2243853D01*
X11301665Y2225160D01*
X11324559Y2211942D01*
X11350094Y2205100D01*
X11376530D01*
X11402065Y2211942D01*
X11424959Y2225160D01*
X11443652Y2243853D01*
X11456870Y2266747D01*
X11463712Y2292282D01*
Y2318718D01*
X11456870Y2344253D01*
X11443652Y2367147D01*
X11424959Y2385840D01*
X11402065Y2399058D01*
X11376530Y2405900D01*
D02*
G37*
G36*
X11122530D02*
X11096094D01*
X11070559Y2399058D01*
X11047665Y2385840D01*
X11028972Y2367147D01*
X11015754Y2344253D01*
X11008912Y2318718D01*
Y2292282D01*
X11015754Y2266747D01*
X11028972Y2243853D01*
X11047665Y2225160D01*
X11070559Y2211942D01*
X11096094Y2205100D01*
X11122530D01*
X11148065Y2211942D01*
X11170959Y2225160D01*
X11189652Y2243853D01*
X11202870Y2266747D01*
X11209712Y2292282D01*
Y2318718D01*
X11202870Y2344253D01*
X11189652Y2367147D01*
X11170959Y2385840D01*
X11148065Y2399058D01*
X11122530Y2405900D01*
D02*
G37*
G36*
X17473218Y2154400D02*
X17446782D01*
X17421246Y2147558D01*
X17398354Y2134340D01*
X17379660Y2115647D01*
X17366441Y2092753D01*
X17359599Y2067218D01*
Y2040782D01*
X17366441Y2015247D01*
X17379660Y1992353D01*
X17398354Y1973660D01*
X17421246Y1960442D01*
X17446782Y1953600D01*
X17473218D01*
X17498753Y1960442D01*
X17521648Y1973660D01*
X17540340Y1992353D01*
X17553558Y2015247D01*
X17560400Y2040782D01*
Y2067218D01*
X17553558Y2092753D01*
X17540340Y2115647D01*
X17521648Y2134340D01*
X17498753Y2147558D01*
X17473218Y2154400D01*
D02*
G37*
G36*
X17219218D02*
X17192783D01*
X17167247Y2147558D01*
X17144353Y2134340D01*
X17125661Y2115647D01*
X17112442Y2092753D01*
X17105600Y2067218D01*
Y2040782D01*
X17112442Y2015247D01*
X17125661Y1992353D01*
X17144353Y1973660D01*
X17167247Y1960442D01*
X17192783Y1953600D01*
X17219218D01*
X17244753Y1960442D01*
X17267647Y1973660D01*
X17286340Y1992353D01*
X17299557Y2015247D01*
X17306400Y2040782D01*
Y2067218D01*
X17299557Y2092753D01*
X17286340Y2115647D01*
X17267647Y2134340D01*
X17244753Y2147558D01*
X17219218Y2154400D01*
D02*
G37*
G36*
X11376530Y2151900D02*
X11350094D01*
X11324559Y2145058D01*
X11301665Y2131840D01*
X11282972Y2113147D01*
X11269754Y2090253D01*
X11262912Y2064718D01*
Y2038282D01*
X11269754Y2012747D01*
X11282972Y1989853D01*
X11301665Y1971160D01*
X11324559Y1957942D01*
X11350094Y1951100D01*
X11376530D01*
X11402065Y1957942D01*
X11424959Y1971160D01*
X11443652Y1989853D01*
X11456870Y2012747D01*
X11463712Y2038282D01*
Y2064718D01*
X11456870Y2090253D01*
X11443652Y2113147D01*
X11424959Y2131840D01*
X11402065Y2145058D01*
X11376530Y2151900D01*
D02*
G37*
G36*
X11122530D02*
X11096094D01*
X11070559Y2145058D01*
X11047665Y2131840D01*
X11028972Y2113147D01*
X11015754Y2090253D01*
X11008912Y2064718D01*
Y2038282D01*
X11015754Y2012747D01*
X11028972Y1989853D01*
X11047665Y1971160D01*
X11070559Y1957942D01*
X11096094Y1951100D01*
X11122530D01*
X11148065Y1957942D01*
X11170959Y1971160D01*
X11189652Y1989853D01*
X11202870Y2012747D01*
X11209712Y2038282D01*
Y2064718D01*
X11202870Y2090253D01*
X11189652Y2113147D01*
X11170959Y2131840D01*
X11148065Y2145058D01*
X11122530Y2151900D01*
D02*
G37*
G36*
X17473218Y1900400D02*
X17446782D01*
X17421246Y1893558D01*
X17398354Y1880340D01*
X17379660Y1861647D01*
X17366441Y1838753D01*
X17359599Y1813218D01*
Y1786782D01*
X17366441Y1761247D01*
X17379660Y1738353D01*
X17398354Y1719660D01*
X17421246Y1706442D01*
X17446782Y1699600D01*
X17473218D01*
X17498753Y1706442D01*
X17521648Y1719660D01*
X17540340Y1738353D01*
X17553558Y1761247D01*
X17560400Y1786782D01*
Y1813218D01*
X17553558Y1838753D01*
X17540340Y1861647D01*
X17521648Y1880340D01*
X17498753Y1893558D01*
X17473218Y1900400D01*
D02*
G37*
G36*
X17219218D02*
X17192783D01*
X17167247Y1893558D01*
X17144353Y1880340D01*
X17125661Y1861647D01*
X17112442Y1838753D01*
X17105600Y1813218D01*
Y1786782D01*
X17112442Y1761247D01*
X17125661Y1738353D01*
X17144353Y1719660D01*
X17167247Y1706442D01*
X17192783Y1699600D01*
X17219218D01*
X17244753Y1706442D01*
X17267647Y1719660D01*
X17286340Y1738353D01*
X17299557Y1761247D01*
X17306400Y1786782D01*
Y1813218D01*
X17299557Y1838753D01*
X17286340Y1861647D01*
X17267647Y1880340D01*
X17244753Y1893558D01*
X17219218Y1900400D01*
D02*
G37*
G36*
X11376530Y1897900D02*
X11350094D01*
X11324559Y1891058D01*
X11301665Y1877840D01*
X11282972Y1859147D01*
X11269754Y1836253D01*
X11262912Y1810718D01*
Y1784282D01*
X11269754Y1758747D01*
X11282972Y1735853D01*
X11301665Y1717160D01*
X11324559Y1703942D01*
X11350094Y1697100D01*
X11376530D01*
X11402065Y1703942D01*
X11424959Y1717160D01*
X11443652Y1735853D01*
X11456870Y1758747D01*
X11463712Y1784282D01*
Y1810718D01*
X11456870Y1836253D01*
X11443652Y1859147D01*
X11424959Y1877840D01*
X11402065Y1891058D01*
X11376530Y1897900D01*
D02*
G37*
G36*
X11122530D02*
X11096094D01*
X11070559Y1891058D01*
X11047665Y1877840D01*
X11028972Y1859147D01*
X11015754Y1836253D01*
X11008912Y1810718D01*
Y1784282D01*
X11015754Y1758747D01*
X11028972Y1735853D01*
X11047665Y1717160D01*
X11070559Y1703942D01*
X11096094Y1697100D01*
X11122530D01*
X11148065Y1703942D01*
X11170959Y1717160D01*
X11189652Y1735853D01*
X11202870Y1758747D01*
X11209712Y1784282D01*
Y1810718D01*
X11202870Y1836253D01*
X11189652Y1859147D01*
X11170959Y1877840D01*
X11148065Y1891058D01*
X11122530Y1897900D01*
D02*
G37*
%LPD*%
G36*
X16020604Y11178453D02*
X16017261Y11177558D01*
X15994366Y11164340D01*
X15975674Y11145647D01*
X15962457Y11122753D01*
X15955615Y11097218D01*
Y11070782D01*
X15962428Y11045351D01*
X15887646Y10970569D01*
X15879225Y10957966D01*
X15876268Y10943100D01*
Y10914327D01*
X15864536Y10909467D01*
X15863661Y10910340D01*
X15840767Y10923558D01*
X15815231Y10930400D01*
X15788795D01*
X15763261Y10923558D01*
X15740367Y10910340D01*
X15721674Y10891647D01*
X15712662Y10876035D01*
X15699960Y10879438D01*
Y10927009D01*
X15763367Y10990414D01*
X15788795Y10983600D01*
X15815231D01*
X15840767Y10990442D01*
X15863661Y11003660D01*
X15882355Y11022353D01*
X15895572Y11045247D01*
X15902414Y11070782D01*
Y11097218D01*
X15895572Y11122753D01*
X15882355Y11145647D01*
X15863661Y11164340D01*
X15840767Y11177558D01*
X15837425Y11178453D01*
X15839098Y11191153D01*
X16018932D01*
X16020604Y11178453D01*
D02*
G37*
G36*
X15721674Y10768353D02*
X15740367Y10749660D01*
X15763261Y10736442D01*
X15788795Y10729600D01*
X15815231D01*
X15840767Y10736442D01*
X15863661Y10749660D01*
X15864536Y10750533D01*
X15876268Y10745673D01*
Y10701205D01*
X13413908Y8238847D01*
X12939812D01*
X12924947Y8235890D01*
X12912344Y8227469D01*
X11408482Y6723607D01*
X11400812Y6725132D01*
X11354561D01*
X11349700Y6736866D01*
X12993988Y8381153D01*
X13319760D01*
X13334625Y8384110D01*
X13347227Y8392531D01*
X15688583Y10733886D01*
X15697005Y10746489D01*
X15699960Y10761355D01*
Y10780561D01*
X15712662Y10783964D01*
X15721674Y10768353D01*
D02*
G37*
G36*
X17534253Y10490810D02*
Y6729333D01*
X17523811Y6722608D01*
X17521553Y6722848D01*
X17498846Y6727364D01*
Y10450000D01*
X17495889Y10464866D01*
X17487468Y10477469D01*
X16617468Y11347469D01*
X16604866Y11355889D01*
X16591975Y11358454D01*
X16593227Y11371154D01*
X16653909D01*
X17534253Y10490810D01*
D02*
G37*
G36*
X15534796Y10729600D02*
X15556462D01*
X15562070Y10717247D01*
X13303670Y8458846D01*
X12977898D01*
X12963033Y8455889D01*
X12950429Y8447468D01*
X11212532Y6709571D01*
X11204111Y6696968D01*
X11202415Y6688442D01*
X11192665Y6685925D01*
X11188950Y6685849D01*
X11178502Y6696298D01*
X11178397Y6713460D01*
X12956091Y8491153D01*
X13270000D01*
X13284866Y8494111D01*
X13297469Y8502531D01*
X15526704Y10731768D01*
X15534796Y10729600D01*
D02*
G37*
G36*
X12938023Y8568454D02*
X12925134Y8565889D01*
X12912531Y8557469D01*
X11098511Y6743449D01*
X11090091Y6730846D01*
X11088293Y6721810D01*
X11070559Y6717058D01*
X11047665Y6703840D01*
X11028972Y6685147D01*
X11021546Y6672285D01*
X11008846Y6675688D01*
Y6723909D01*
X12866090Y8581154D01*
X12936774D01*
X12938023Y8568454D01*
D02*
G37*
G36*
X15975674Y10768353D02*
X15994366Y10749660D01*
X16017168Y10736496D01*
Y10692105D01*
X13303909Y7978847D01*
X12933812D01*
X12918945Y7975890D01*
X12906345Y7967469D01*
X11401961Y6463086D01*
X11376530Y6469900D01*
X11350094D01*
X11324559Y6463058D01*
X11301665Y6449840D01*
X11291547Y6439721D01*
X11278847Y6444982D01*
Y6526458D01*
X11291547Y6533247D01*
X11301270Y6526750D01*
X11325813Y6521868D01*
X11400812D01*
X11425355Y6526750D01*
X11446160Y6540652D01*
X11460063Y6561458D01*
X11464945Y6586000D01*
Y6661000D01*
X11463419Y6668670D01*
X12955904Y8161154D01*
X13430000D01*
X13444865Y8164111D01*
X13457469Y8172532D01*
X15942583Y10657646D01*
X15951004Y10670249D01*
X15953961Y10685115D01*
Y10780561D01*
X15966661Y10783964D01*
X15975674Y10768353D01*
D02*
G37*
D10*
X11363312Y4083500D02*
X16339999Y9060188D01*
X16239999Y11230000D02*
X16339999Y11130000D01*
Y9060188D02*
Y11130000D01*
X15694014Y11230000D02*
X16239999D01*
X15548013Y11084000D02*
X15694014Y11230000D01*
X13389999Y11160000D02*
X13550000Y11320000D01*
X16589999D02*
X17460001Y10450000D01*
X13550000Y11320000D02*
X16589999D01*
X16670000Y11410000D02*
X17573100Y10506900D01*
X13008000Y11084000D02*
X13334000Y11410000D01*
X16670000D01*
X17460001Y6626000D02*
Y10450000D01*
X13008000Y11084000D02*
X13008000D01*
X13262000Y10830000D02*
X13389999Y10958000D01*
Y11160000D01*
X17573100Y6485100D02*
Y10506900D01*
X11363312Y6369500D02*
X12933812Y7940000D01*
X13320000D02*
X16056013Y10676014D01*
X12933812Y7940000D02*
X13320000D01*
X11363312Y6623500D02*
X12939812Y8200000D01*
X13430000D02*
X15915114Y10685115D01*
X12939812Y8200000D02*
X13430000D01*
X13319760Y8420000D02*
X15661115Y10761355D01*
X11240000Y6682102D02*
X12977898Y8420000D01*
X13319760D01*
X12939999Y8530000D02*
X13270000D01*
X15548013Y10808014D02*
Y10830000D01*
X13270000Y8530000D02*
X15548013Y10808014D01*
X12850000Y8620000D02*
X13189999D01*
X15170000Y10600000D02*
Y10959985D01*
X13189999Y8620000D02*
X15170000Y10600000D01*
X10970000Y6740000D02*
X12850000Y8620000D01*
X11125980Y6715980D02*
X12939999Y8530000D01*
X11109312Y6623500D02*
X11125980Y6640168D01*
Y6715980D01*
X15170000Y10959985D02*
X15294014Y11084000D01*
X10970000Y6508812D02*
Y6740000D01*
Y6508812D02*
X11109312Y6369500D01*
X11128360Y6228600D02*
X11240000Y6340240D01*
Y6682102D01*
X15661115Y10761355D02*
Y10943100D01*
X15802014Y11084000D01*
X11128360Y6134548D02*
Y6228600D01*
X11109312Y6115500D02*
X11128360Y6134548D01*
X15915114Y10685115D02*
Y10943100D01*
X16056013Y10676014D02*
Y10830000D01*
X15915114Y10943100D02*
X16056013Y11084000D01*
X17460001Y6372000D02*
X17573100Y6485100D01*
D11*
X17145000Y8610000D02*
D03*
D12*
Y8110000D02*
D03*
D13*
X16056013Y11084000D02*
D03*
X15802014D02*
D03*
X16056013Y10830000D02*
D03*
X15802014D02*
D03*
X15040015Y11084000D02*
D03*
Y10830000D02*
D03*
X14786014Y11084000D02*
D03*
X15294014Y10830000D02*
D03*
Y11084000D02*
D03*
X15548013Y10830000D02*
D03*
Y11084000D02*
D03*
X13770000D02*
D03*
X13516000D02*
D03*
X13770000Y10830000D02*
D03*
X13516000D02*
D03*
X12754000Y11084000D02*
D03*
Y10830000D02*
D03*
X12500000Y11084000D02*
D03*
X13008000Y10830000D02*
D03*
Y11084000D02*
D03*
X13262000Y10830000D02*
D03*
Y11084000D02*
D03*
X17206000Y1800000D02*
D03*
Y2054000D02*
D03*
Y2308000D02*
D03*
X17460001Y1800000D02*
D03*
Y2054000D02*
D03*
Y2308000D02*
D03*
X17206000Y3070000D02*
D03*
X17460001D02*
D03*
X17206000Y3578000D02*
D03*
X17460001D02*
D03*
X17206000Y3832000D02*
D03*
X17460001D02*
D03*
X17206000Y4086000D02*
D03*
X17460001D02*
D03*
X17206000Y4340000D02*
D03*
X17460001D02*
D03*
X17206000Y4848000D02*
D03*
X17460001D02*
D03*
X17206000Y5356000D02*
D03*
X17460001D02*
D03*
X17206000Y5864000D02*
D03*
X17460001D02*
D03*
X17206000Y6626000D02*
D03*
X17460001Y6372000D02*
D03*
X17206000D02*
D03*
X17460001Y6118000D02*
D03*
X17206000D02*
D03*
X17460001Y5610000D02*
D03*
X17206000D02*
D03*
X17460001Y5102000D02*
D03*
X17206000D02*
D03*
X17460001Y4594000D02*
D03*
X17206000D02*
D03*
X17460001Y3324000D02*
D03*
X17206000D02*
D03*
X17460001Y2816000D02*
D03*
X17206000D02*
D03*
X17460001Y2562000D02*
D03*
X17206000D02*
D03*
X11109312Y1797500D02*
D03*
Y2051500D02*
D03*
Y2305500D02*
D03*
X11363312Y1797500D02*
D03*
Y2051500D02*
D03*
Y2305500D02*
D03*
X11109312Y3067500D02*
D03*
X11363312D02*
D03*
X11109312Y3575500D02*
D03*
X11363312D02*
D03*
X11109312Y3829500D02*
D03*
X11363312D02*
D03*
X11109312Y4083500D02*
D03*
X11363312D02*
D03*
X11109312Y4337500D02*
D03*
X11363312D02*
D03*
X11109312Y4845500D02*
D03*
X11363312D02*
D03*
X11109312Y5353500D02*
D03*
X11363312D02*
D03*
X11109312Y5861500D02*
D03*
X11363312D02*
D03*
X11109312Y6623500D02*
D03*
X11363312Y6369500D02*
D03*
X11109312D02*
D03*
X11363312Y6115500D02*
D03*
X11109312D02*
D03*
X11363312Y5607500D02*
D03*
X11109312D02*
D03*
X11363312Y5099500D02*
D03*
X11109312D02*
D03*
X11363312Y4591500D02*
D03*
X11109312D02*
D03*
X11363312Y3321500D02*
D03*
X11109312D02*
D03*
X11363312Y2813500D02*
D03*
X11109312D02*
D03*
X11363312Y2559500D02*
D03*
X11109312D02*
D03*
D14*
X14786014Y10830000D02*
D03*
X12500000D02*
D03*
D15*
X17460001Y6626000D02*
D03*
X11363312Y6623500D02*
D03*
D16*
X18714999Y9480000D02*
D03*
X9885000Y2980000D02*
D03*
Y9480000D02*
D03*
X18714999Y2980000D02*
D03*
D17*
X16500002Y10500000D02*
D03*
X17250002Y9000000D02*
D03*
X16500002Y7500000D02*
D03*
Y4500000D02*
D03*
Y1500000D02*
D03*
X15000000Y7500000D02*
D03*
X15750002Y6000000D02*
D03*
X15000000Y4500000D02*
D03*
X15750002Y3000000D02*
D03*
X15000000Y1500000D02*
D03*
X13500000Y10500000D02*
D03*
Y7500000D02*
D03*
X14250000Y6000000D02*
D03*
X13500000Y4500000D02*
D03*
X14250000Y3000000D02*
D03*
X13500000Y1500000D02*
D03*
X12000000Y10500000D02*
D03*
X12750000Y9000000D02*
D03*
Y6000000D02*
D03*
X12000000Y4500000D02*
D03*
X12750000Y3000000D02*
D03*
X12000000Y1500000D02*
D03*
%TF.MD5,58272255e8d22be2d650df861d3085f0*%
M02*
