%TF.GenerationSoftware,Altium Limited,Altium Designer,23.6.0 (18)*%
G04 Layer_Color=32896*
%FSLAX45Y45*%
%MOMM*%
%TF.SameCoordinates,8094E8B3-5A3C-4876-ADF7-68A746E10FBF*%
%TF.FilePolarity,Positive*%
%TF.FileFunction,Legend,Bot*%
%TF.Part,Single*%
G01*
G75*
%TA.AperFunction,NonConductor*%
%ADD19C,0.25000*%
%ADD20C,0.20000*%
%ADD21C,0.25400*%
D19*
X17655499Y6624000D02*
G03*
X17655499Y6624000I-12500J0D01*
G01*
X11558812Y6621500D02*
G03*
X11558812Y6621500I-12500J0D01*
G01*
D20*
X16795000Y8860000D02*
X17545000D01*
X16795000Y7860000D02*
X17545000D01*
X16795000D02*
Y8860000D01*
X17545000Y7860000D02*
Y8860000D01*
X17071500Y1635500D02*
Y6790500D01*
Y1635500D02*
X17594501D01*
Y6790500D01*
X17071500D02*
X17594501D01*
X10974812Y1633000D02*
Y6788000D01*
Y1633000D02*
X11497812D01*
Y6788000D01*
X10974812D02*
X11497812D01*
D21*
X16543939Y8755003D02*
Y8805787D01*
Y8780395D01*
X16670898D01*
X16696291Y8805787D01*
Y8831178D01*
X16670898Y8856570D01*
X16569331Y8704219D02*
X16543939Y8678827D01*
Y8628044D01*
X16569331Y8602652D01*
X16594724D01*
X16645506Y8653436D01*
X16670898D02*
X16696291D01*
X17541273Y7040831D02*
X17592056D01*
X17566666D01*
Y6913872D01*
X17592056Y6888480D01*
X17617448D01*
X17642841Y6913872D01*
X17490489Y6888480D02*
X17439706D01*
X17465097D01*
Y7040831D01*
X17490489Y7015439D01*
X11445273Y7038291D02*
X11496057D01*
X11470665D01*
Y6911332D01*
X11496057Y6885940D01*
X11521448D01*
X11546840Y6911332D01*
X11292922Y6885940D02*
X11394489D01*
X11292922Y6987507D01*
Y7012899D01*
X11318314Y7038291D01*
X11369097D01*
X11394489Y7012899D01*
%TF.MD5,ddca1b85d4f127ad68002565369d4277*%
M02*
