%TF.GenerationSoftware,Altium Limited,Altium Designer,23.6.0 (18)*%
G04 Layer_Color=8388736*
%FSLAX45Y45*%
%MOMM*%
%TF.SameCoordinates,8094E8B3-5A3C-4876-ADF7-68A746E10FBF*%
%TF.FilePolarity,Negative*%
%TF.FileFunction,Soldermask,Top*%
%TF.Part,Single*%
G01*
G75*
%TA.AperFunction,ViaPad*%
%ADD16C,3.50000*%
%TA.AperFunction,ComponentPad*%
G04:AMPARAMS|DCode=22|XSize=2.1532mm|YSize=2.1532mm|CornerRadius=0.5891mm|HoleSize=0mm|Usage=FLASHONLY|Rotation=270.000|XOffset=0mm|YOffset=0mm|HoleType=Round|Shape=RoundedRectangle|*
%AMROUNDEDRECTD22*
21,1,2.15320,0.97500,0,0,270.0*
21,1,0.97500,2.15320,0,0,270.0*
1,1,1.17820,-0.48750,-0.48750*
1,1,1.17820,-0.48750,0.48750*
1,1,1.17820,0.48750,0.48750*
1,1,1.17820,0.48750,-0.48750*
%
%ADD22ROUNDEDRECTD22*%
%ADD23C,2.15320*%
%ADD24C,1.70320*%
G04:AMPARAMS|DCode=25|XSize=1.7032mm|YSize=1.7032mm|CornerRadius=0.4766mm|HoleSize=0mm|Usage=FLASHONLY|Rotation=0.000|XOffset=0mm|YOffset=0mm|HoleType=Round|Shape=RoundedRectangle|*
%AMROUNDEDRECTD25*
21,1,1.70320,0.75000,0,0,0.0*
21,1,0.75000,1.70320,0,0,0.0*
1,1,0.95320,0.37500,-0.37500*
1,1,0.95320,-0.37500,-0.37500*
1,1,0.95320,-0.37500,0.37500*
1,1,0.95320,0.37500,0.37500*
%
%ADD25ROUNDEDRECTD25*%
G04:AMPARAMS|DCode=26|XSize=1.7032mm|YSize=1.7032mm|CornerRadius=0.4766mm|HoleSize=0mm|Usage=FLASHONLY|Rotation=270.000|XOffset=0mm|YOffset=0mm|HoleType=Round|Shape=RoundedRectangle|*
%AMROUNDEDRECTD26*
21,1,1.70320,0.75000,0,0,270.0*
21,1,0.75000,1.70320,0,0,270.0*
1,1,0.95320,-0.37500,-0.37500*
1,1,0.95320,-0.37500,0.37500*
1,1,0.95320,0.37500,0.37500*
1,1,0.95320,0.37500,-0.37500*
%
%ADD26ROUNDEDRECTD26*%
%TA.AperFunction,ViaPad*%
%ADD27C,1.47320*%
D16*
X18714999Y9480000D02*
D03*
X9885000Y2980000D02*
D03*
Y9480000D02*
D03*
X18714999Y2980000D02*
D03*
D22*
X17145000Y8610000D02*
D03*
D23*
Y8110000D02*
D03*
D24*
X16056013Y11084000D02*
D03*
X15802014D02*
D03*
X16056013Y10830000D02*
D03*
X15802014D02*
D03*
X15040015Y11084000D02*
D03*
Y10830000D02*
D03*
X14786014Y11084000D02*
D03*
X15294014Y10830000D02*
D03*
Y11084000D02*
D03*
X15548013Y10830000D02*
D03*
Y11084000D02*
D03*
X13770000D02*
D03*
X13516000D02*
D03*
X13770000Y10830000D02*
D03*
X13516000D02*
D03*
X12754000Y11084000D02*
D03*
Y10830000D02*
D03*
X12500000Y11084000D02*
D03*
X13008000Y10830000D02*
D03*
Y11084000D02*
D03*
X13262000Y10830000D02*
D03*
Y11084000D02*
D03*
X17206000Y1800000D02*
D03*
Y2054000D02*
D03*
Y2308000D02*
D03*
X17460001Y1800000D02*
D03*
Y2054000D02*
D03*
Y2308000D02*
D03*
X17206000Y3070000D02*
D03*
X17460001D02*
D03*
X17206000Y3578000D02*
D03*
X17460001D02*
D03*
X17206000Y3832000D02*
D03*
X17460001D02*
D03*
X17206000Y4086000D02*
D03*
X17460001D02*
D03*
X17206000Y4340000D02*
D03*
X17460001D02*
D03*
X17206000Y4848000D02*
D03*
X17460001D02*
D03*
X17206000Y5356000D02*
D03*
X17460001D02*
D03*
X17206000Y5864000D02*
D03*
X17460001D02*
D03*
X17206000Y6626000D02*
D03*
X17460001Y6372000D02*
D03*
X17206000D02*
D03*
X17460001Y6118000D02*
D03*
X17206000D02*
D03*
X17460001Y5610000D02*
D03*
X17206000D02*
D03*
X17460001Y5102000D02*
D03*
X17206000D02*
D03*
X17460001Y4594000D02*
D03*
X17206000D02*
D03*
X17460001Y3324000D02*
D03*
X17206000D02*
D03*
X17460001Y2816000D02*
D03*
X17206000D02*
D03*
X17460001Y2562000D02*
D03*
X17206000D02*
D03*
X11109312Y1797500D02*
D03*
Y2051500D02*
D03*
Y2305500D02*
D03*
X11363312Y1797500D02*
D03*
Y2051500D02*
D03*
Y2305500D02*
D03*
X11109312Y3067500D02*
D03*
X11363312D02*
D03*
X11109312Y3575500D02*
D03*
X11363312D02*
D03*
X11109312Y3829500D02*
D03*
X11363312D02*
D03*
X11109312Y4083500D02*
D03*
X11363312D02*
D03*
X11109312Y4337500D02*
D03*
X11363312D02*
D03*
X11109312Y4845500D02*
D03*
X11363312D02*
D03*
X11109312Y5353500D02*
D03*
X11363312D02*
D03*
X11109312Y5861500D02*
D03*
X11363312D02*
D03*
X11109312Y6623500D02*
D03*
X11363312Y6369500D02*
D03*
X11109312D02*
D03*
X11363312Y6115500D02*
D03*
X11109312D02*
D03*
X11363312Y5607500D02*
D03*
X11109312D02*
D03*
X11363312Y5099500D02*
D03*
X11109312D02*
D03*
X11363312Y4591500D02*
D03*
X11109312D02*
D03*
X11363312Y3321500D02*
D03*
X11109312D02*
D03*
X11363312Y2813500D02*
D03*
X11109312D02*
D03*
X11363312Y2559500D02*
D03*
X11109312D02*
D03*
D25*
X14786014Y10830000D02*
D03*
X12500000D02*
D03*
D26*
X17460001Y6626000D02*
D03*
X11363312Y6623500D02*
D03*
D27*
X16500002Y10500000D02*
D03*
X17250002Y9000000D02*
D03*
X16500002Y7500000D02*
D03*
Y4500000D02*
D03*
Y1500000D02*
D03*
X15000000Y7500000D02*
D03*
X15750002Y6000000D02*
D03*
X15000000Y4500000D02*
D03*
X15750002Y3000000D02*
D03*
X15000000Y1500000D02*
D03*
X13500000Y10500000D02*
D03*
Y7500000D02*
D03*
X14250000Y6000000D02*
D03*
X13500000Y4500000D02*
D03*
X14250000Y3000000D02*
D03*
X13500000Y1500000D02*
D03*
X12000000Y10500000D02*
D03*
X12750000Y9000000D02*
D03*
Y6000000D02*
D03*
X12000000Y4500000D02*
D03*
X12750000Y3000000D02*
D03*
X12000000Y1500000D02*
D03*
%TF.MD5,d390d9ce9248ba29242d3ef28367173e*%
M02*
